<svg width="350" height="131" viewBox="0 0 350 131" fill="none" xmlns="http://www.w3.org/2000/svg">
<rect x="0.273438" y="0.737305" width="349.669" height="130.046" rx="16" fill="#F3F4F6"/>
<path d="M19.0556 40.14V39.2165H21.1472V47.2603H20.1236V40.14H19.0556ZM26.0347 38.5379C26.5391 38.5379 26.9841 38.6269 27.3698 38.8049C27.7555 38.9755 28.0559 39.2165 28.2709 39.5281C28.4935 39.8321 28.6047 40.1919 28.6047 40.6072C28.6047 41.0077 28.4935 41.3675 28.2709 41.6864C28.0559 41.9979 27.7555 42.2427 27.3698 42.4207C26.9841 42.5913 26.5391 42.6766 26.0347 42.6766C25.5452 42.6766 25.1076 42.5913 24.7219 42.4207C24.3362 42.2427 24.0321 41.9979 23.8096 41.6864C23.5871 41.3675 23.4759 41.0077 23.4759 40.6072C23.4759 40.1919 23.5871 39.8321 23.8096 39.5281C24.0321 39.2165 24.3362 38.9755 24.7219 38.8049C25.1076 38.6269 25.5452 38.5379 26.0347 38.5379ZM26.0347 39.2944C25.7158 39.2944 25.4302 39.35 25.1781 39.4613C24.9259 39.5726 24.7256 39.7283 24.5773 39.9286C24.4364 40.1214 24.3659 40.3476 24.3659 40.6072C24.3659 40.8594 24.4364 41.0856 24.5773 41.2859C24.7256 41.4787 24.9259 41.6308 25.1781 41.742C25.4302 41.8533 25.7158 41.9089 26.0347 41.9089C26.3685 41.9089 26.6615 41.8533 26.9136 41.742C27.1658 41.6308 27.3624 41.4787 27.5033 41.2859C27.6516 41.0856 27.7258 40.8594 27.7258 40.6072C27.7258 40.3476 27.6516 40.1214 27.5033 39.9286C27.3624 39.7283 27.1658 39.5726 26.9136 39.4613C26.6615 39.35 26.3685 39.2944 26.0347 39.2944ZM25.6342 43.8002H26.5576V47.8165H25.6342V43.8002ZM30.0844 38.0706H30.9967V48.128H30.0844V38.0706ZM22.8528 44.3009L22.7305 43.5221C23.3535 43.5221 24.0358 43.5147 24.7775 43.4998C25.5267 43.485 26.2943 43.4516 27.0805 43.3997C27.8741 43.3478 28.6344 43.2662 29.3612 43.155L29.428 43.8447C28.6789 43.9857 27.9149 44.0895 27.1361 44.1562C26.3574 44.2156 25.6008 44.2527 24.8666 44.2675C24.1397 44.2823 23.4685 44.2935 22.8528 44.3009ZM36.5764 47.327C36.3835 47.327 36.2204 47.2603 36.0868 47.1267C35.9533 46.9932 35.8866 46.8301 35.8866 46.6372C35.8866 46.4444 35.9533 46.2812 36.0868 46.1477C36.2204 46.0142 36.3835 45.9474 36.5764 45.9474C36.7618 45.9474 36.9175 46.0142 37.0436 46.1477C37.1771 46.2812 37.2439 46.4444 37.2439 46.6372C37.2439 46.8301 37.1771 46.9932 37.0436 47.1267C36.9175 47.2603 36.7618 47.327 36.5764 47.327ZM36.5764 42.5653C36.3835 42.5653 36.2204 42.4986 36.0868 42.365C35.9533 42.2315 35.8866 42.0684 35.8866 41.8755C35.8866 41.6827 35.9533 41.5195 36.0868 41.386C36.2204 41.2525 36.3835 41.1857 36.5764 41.1857C36.7618 41.1857 36.9175 41.2525 37.0436 41.386C37.1771 41.5195 37.2439 41.6827 37.2439 41.8755C37.2439 42.0684 37.1771 42.2315 37.0436 42.365C36.9175 42.4986 36.7618 42.5653 36.5764 42.5653ZM48.1746 38.0706H49.098V45.6137H48.1746V38.0706ZM48.8087 41.3749H50.5777V42.1425H48.8087V41.3749ZM41.3102 39.2944H47.2512V40.0398H41.3102V39.2944ZM44.2807 40.585C44.7554 40.585 45.1744 40.6666 45.5378 40.8297C45.9013 40.9855 46.1831 41.2043 46.3834 41.4861C46.5836 41.7606 46.6838 42.0869 46.6838 42.4652C46.6838 42.8434 46.5836 43.1735 46.3834 43.4553C46.1831 43.7298 45.9013 43.9449 45.5378 44.1006C45.1744 44.2564 44.7554 44.3343 44.2807 44.3343C43.806 44.3343 43.3869 44.2564 43.0235 44.1006C42.6601 43.9449 42.3745 43.7298 42.1668 43.4553C41.9666 43.1735 41.8664 42.8434 41.8664 42.4652C41.8664 42.0869 41.9666 41.7606 42.1668 41.4861C42.3745 41.2043 42.6601 40.9855 43.0235 40.8297C43.3869 40.6666 43.806 40.585 44.2807 40.585ZM44.2807 41.3081C43.8282 41.3081 43.4611 41.4157 43.1792 41.6308C42.8974 41.8384 42.7565 42.1166 42.7565 42.4652C42.7565 42.8138 42.8974 43.0919 43.1792 43.2996C43.4611 43.5073 43.8282 43.6111 44.2807 43.6111C44.7405 43.6111 45.1077 43.5073 45.3821 43.2996C45.6639 43.0919 45.8049 42.8138 45.8049 42.4652C45.8049 42.1166 45.6639 41.8384 45.3821 41.6308C45.1077 41.4157 44.7405 41.3081 44.2807 41.3081ZM43.8245 38.0706H44.7479V39.6727H43.8245V38.0706ZM42.8344 47.149H49.543V47.9055H42.8344V47.149ZM42.8344 45.0129H43.7466V47.4605H42.8344V45.0129ZM58.3424 38.0595H59.2547V48.1392H58.3424V38.0595ZM59.0433 42.0535H60.9012V42.8323H59.0433V42.0535ZM51.9341 44.935H52.7352C53.3582 44.935 53.9293 44.9276 54.4485 44.9128C54.9751 44.8905 55.4831 44.8572 55.9727 44.8127C56.4622 44.7607 56.9591 44.6866 57.4635 44.5901L57.5525 45.3467C57.0333 45.4431 56.5252 45.5173 56.0283 45.5692C55.5388 45.6211 55.027 45.6582 54.493 45.6804C53.959 45.7027 53.373 45.7138 52.7352 45.7138H51.9341V44.935ZM51.9119 38.994H56.4511V42.6098H52.8464V45.2465H51.9341V41.8422H55.5388V39.7506H51.9119V38.994ZM61.757 43.0993H70.8465V43.8559H61.757V43.0993ZM65.8401 41.7086H66.7635V43.3441H65.8401V41.7086ZM66.2851 44.5901C67.368 44.5901 68.2135 44.7422 68.8217 45.0463C69.4299 45.3504 69.734 45.7843 69.734 46.348C69.734 46.9117 69.4299 47.3455 68.8217 47.6496C68.2135 47.9537 67.368 48.1058 66.2851 48.1058C65.2171 48.1058 64.3789 47.9537 63.7707 47.6496C63.1626 47.3455 62.8585 46.9117 62.8585 46.348C62.8585 45.7843 63.1626 45.3504 63.7707 45.0463C64.3789 44.7422 65.2171 44.5901 66.2851 44.5901ZM66.2962 45.3133C65.7696 45.3133 65.3172 45.3541 64.9389 45.4357C64.5681 45.5173 64.2825 45.6359 64.0823 45.7917C63.882 45.94 63.7819 46.1255 63.7819 46.348C63.7819 46.5705 63.882 46.7596 64.0823 46.9154C64.2825 47.0711 64.5681 47.1898 64.9389 47.2714C65.3172 47.353 65.7696 47.3938 66.2962 47.3938C66.8228 47.3938 67.2716 47.353 67.6424 47.2714C68.0133 47.1898 68.2988 47.0711 68.4991 46.9154C68.6993 46.7596 68.7995 46.5705 68.7995 46.348C68.7995 46.1255 68.6993 45.94 68.4991 45.7917C68.2988 45.6359 68.0133 45.5173 67.6424 45.4357C67.2716 45.3541 66.8228 45.3133 66.2962 45.3133ZM62.9586 38.3265H63.8709V39.4391H68.7438V38.3265H69.6561V42.0313H62.9586V38.3265ZM63.8709 40.1622V41.297H68.7438V40.1622H63.8709ZM71.9916 46.0698H81.1145V46.8375H71.9916V46.0698ZM76.0858 43.6334H77.0092V46.3257H76.0858V43.6334ZM76.0635 39.3389H76.8534V39.9508C76.8534 40.3662 76.7756 40.7593 76.6198 41.1301C76.4715 41.4936 76.2638 41.8347 75.9968 42.1537C75.7372 42.4652 75.4331 42.7433 75.0845 42.9881C74.7433 43.2254 74.3762 43.4331 73.9831 43.6111C73.5974 43.7817 73.208 43.9078 72.8149 43.9894L72.4366 43.2551C72.7778 43.1957 73.1227 43.0956 73.4713 42.9547C73.8199 42.8064 74.1462 42.6284 74.4503 42.4207C74.7618 42.213 75.0363 41.9794 75.2736 41.7198C75.5184 41.4602 75.7112 41.182 75.8521 40.8854C75.9931 40.5887 76.0635 40.2772 76.0635 39.9508V39.3389ZM76.2415 39.3389H77.0203V39.9508C77.0203 40.2772 77.0908 40.5887 77.2317 40.8854C77.3726 41.1746 77.5655 41.4491 77.8102 41.7086C78.055 41.9682 78.3331 42.2019 78.6446 42.4095C78.9561 42.6098 79.2862 42.7804 79.6348 42.9213C79.9908 43.0622 80.3431 43.1587 80.6917 43.2106L80.3134 43.9449C79.9129 43.8633 79.5161 43.7409 79.123 43.5777C78.7299 43.4071 78.3591 43.2032 78.0105 42.9658C77.6693 42.7211 77.3652 42.4466 77.0982 42.1425C76.8312 41.831 76.6198 41.4936 76.464 41.1301C76.3157 40.7593 76.2415 40.3662 76.2415 39.9508V39.3389ZM72.7481 38.9718H80.3357V39.7394H72.7481V38.9718ZM84.8963 38.8383C85.3932 38.8383 85.8308 38.9829 86.2091 39.2722C86.5873 39.554 86.884 39.9582 87.0991 40.4848C87.3142 41.0114 87.4218 41.6308 87.4218 42.3428C87.4218 43.0548 87.3142 43.6741 87.0991 44.2008C86.884 44.7274 86.5873 45.1353 86.2091 45.4246C85.8308 45.7138 85.3932 45.8584 84.8963 45.8584C84.4067 45.8584 83.9691 45.7138 83.5835 45.4246C83.2052 45.1353 82.9085 44.7274 82.6934 44.2008C82.4783 43.6741 82.3708 43.0548 82.3708 42.3428C82.3708 41.6308 82.4783 41.0114 82.6934 40.4848C82.9085 39.9582 83.2052 39.554 83.5835 39.2722C83.9691 38.9829 84.4067 38.8383 84.8963 38.8383ZM84.8963 39.6616C84.5773 39.6616 84.2918 39.7728 84.0396 39.9953C83.7948 40.2104 83.602 40.5219 83.4611 40.9299C83.3202 41.3304 83.2497 41.8014 83.2497 42.3428C83.2497 42.8842 83.3202 43.3589 83.4611 43.7669C83.602 44.1674 83.7948 44.4789 84.0396 44.7014C84.2918 44.9239 84.581 45.0352 84.9074 45.0352C85.2263 45.0352 85.5082 44.9239 85.7529 44.7014C86.0051 44.4789 86.1979 44.1674 86.3315 43.7669C86.4724 43.3589 86.5428 42.8842 86.5428 42.3428C86.5428 41.8014 86.4724 41.3304 86.3315 40.9299C86.1979 40.5219 86.0051 40.2104 85.7529 39.9953C85.5082 39.7728 85.2226 39.6616 84.8963 39.6616ZM89.0349 38.0595H89.9584V48.128H89.0349V38.0595ZM89.747 42.0758H91.6049V42.8546H89.747V42.0758ZM98.3305 49.3296C97.6185 48.6324 97.0622 47.7461 96.6617 46.6706C96.2686 45.5951 96.0721 44.4344 96.0721 43.1883C96.0721 41.9126 96.2797 40.7222 96.6951 39.6171C97.1179 38.5045 97.7186 37.5885 98.4974 36.8691H99.5543V36.9692C98.7236 37.748 98.0969 38.6862 97.6741 39.7839C97.2588 40.8742 97.0511 42.009 97.0511 43.1883C97.0511 44.338 97.2477 45.4357 97.6408 46.4815C98.0413 47.5273 98.6235 48.4433 99.3875 49.2295V49.3296H98.3305ZM104.985 44.4121C105.704 44.4121 106.323 44.4863 106.843 44.6346C107.369 44.783 107.773 44.9944 108.055 45.2688C108.345 45.5432 108.489 45.877 108.489 46.2701C108.489 46.6484 108.345 46.9784 108.055 47.2603C107.773 47.5347 107.369 47.7424 106.843 47.8833C106.323 48.0316 105.704 48.1058 104.985 48.1058C104.273 48.1058 103.653 48.0316 103.127 47.8833C102.6 47.7424 102.196 47.5347 101.914 47.2603C101.632 46.9784 101.491 46.6484 101.491 46.2701C101.491 45.877 101.632 45.5432 101.914 45.2688C102.196 44.9944 102.6 44.783 103.127 44.6346C103.653 44.4863 104.273 44.4121 104.985 44.4121ZM104.985 45.1242C104.458 45.1242 104.002 45.1724 103.616 45.2688C103.231 45.3578 102.93 45.4876 102.715 45.6582C102.507 45.8288 102.404 46.0327 102.404 46.2701C102.404 46.4926 102.507 46.6891 102.715 46.8597C102.93 47.0303 103.231 47.1601 103.616 47.2491C104.002 47.3381 104.458 47.3826 104.985 47.3826C105.519 47.3826 105.979 47.3381 106.364 47.2491C106.75 47.1601 107.047 47.0303 107.254 46.8597C107.469 46.6891 107.577 46.4926 107.577 46.2701C107.577 46.0327 107.469 45.8288 107.254 45.6582C107.047 45.4876 106.75 45.3578 106.364 45.2688C105.979 45.1724 105.519 45.1242 104.985 45.1242ZM101.558 38.5713H108.033V39.3167H101.558V38.5713ZM100.49 42.7433H109.557V43.4998H100.49V42.7433ZM104.217 40.8075H105.129V42.9658H104.217V40.8075ZM107.499 38.5713H108.411V39.4168C108.411 39.8247 108.4 40.2438 108.378 40.674C108.356 41.0967 108.274 41.5677 108.133 42.0869L107.232 41.9868C107.366 41.4676 107.443 41.0077 107.466 40.6072C107.488 40.2067 107.499 39.8099 107.499 39.4168V38.5713ZM114.719 40.496H116.688V41.2525H114.719V40.496ZM114.719 43.5555H116.688V44.3231H114.719V43.5555ZM118.379 38.0595H119.269V48.128H118.379V38.0595ZM116.399 38.2709H117.277V47.6163H116.399V38.2709ZM112.972 38.905C113.41 38.905 113.788 39.0459 114.107 39.3278C114.433 39.6096 114.685 40.0139 114.863 40.5405C115.041 41.0671 115.13 41.6864 115.13 42.3984C115.13 43.1179 115.041 43.7409 114.863 44.2675C114.685 44.7941 114.433 45.202 114.107 45.4913C113.788 45.7731 113.41 45.9141 112.972 45.9141C112.549 45.9141 112.175 45.7731 111.848 45.4913C111.529 45.202 111.281 44.7941 111.103 44.2675C110.925 43.7409 110.836 43.1179 110.836 42.3984C110.836 41.6864 110.925 41.0671 111.103 40.5405C111.281 40.0139 111.529 39.6096 111.848 39.3278C112.175 39.0459 112.549 38.905 112.972 38.905ZM112.972 39.7617C112.712 39.7617 112.482 39.8692 112.282 40.0843C112.089 40.2994 111.941 40.6035 111.837 40.9966C111.733 41.3897 111.681 41.857 111.681 42.3984C111.681 42.9399 111.733 43.4108 111.837 43.8114C111.941 44.2045 112.089 44.5086 112.282 44.7236C112.482 44.9387 112.712 45.0463 112.972 45.0463C113.246 45.0463 113.48 44.9387 113.673 44.7236C113.866 44.5086 114.014 44.2045 114.118 43.8114C114.229 43.4108 114.285 42.9399 114.285 42.3984C114.285 41.857 114.229 41.3897 114.118 40.9966C114.014 40.6035 113.866 40.2994 113.673 40.0843C113.48 39.8692 113.246 39.7617 112.972 39.7617ZM127.201 47.2603L126.188 46.2367C125.81 46.6298 125.406 46.9228 124.975 47.1156C124.545 47.301 124.059 47.3938 123.518 47.3938C122.984 47.3938 122.509 47.2973 122.094 47.1045C121.686 46.9117 121.367 46.6372 121.137 46.2812C120.915 45.9252 120.803 45.5098 120.803 45.0352C120.803 44.4937 120.955 44.019 121.26 43.6111C121.571 43.1957 122.027 42.8694 122.628 42.6321C122.391 42.3502 122.22 42.0906 122.116 41.8533C122.012 41.6159 121.96 41.3563 121.96 41.0745C121.96 40.7481 122.042 40.4552 122.205 40.1956C122.376 39.9286 122.617 39.7209 122.928 39.5726C123.24 39.4242 123.6 39.35 124.008 39.35C124.408 39.35 124.757 39.4279 125.053 39.5837C125.35 39.7394 125.572 39.9582 125.721 40.2401C125.869 40.5145 125.936 40.8223 125.921 41.1635H124.909C124.916 40.8594 124.831 40.6221 124.653 40.4515C124.475 40.2735 124.245 40.1845 123.963 40.1845C123.666 40.1845 123.425 40.2698 123.24 40.4403C123.062 40.6035 122.973 40.8149 122.973 41.0745C122.973 41.297 123.032 41.5121 123.151 41.7198C123.277 41.9274 123.485 42.1833 123.774 42.4874L126.088 44.8127L126.288 44.5011L127.045 43.2328H128.135L127.223 44.8127C127.097 45.0352 126.948 45.2688 126.778 45.5136L128.524 47.2603H127.201ZM123.518 46.526C123.918 46.526 124.278 46.4481 124.597 46.2923C124.923 46.1366 125.231 45.8955 125.521 45.5692L123.24 43.2773C122.29 43.6408 121.816 44.2156 121.816 45.0018C121.816 45.4394 121.972 45.8028 122.283 46.0921C122.602 46.3813 123.014 46.526 123.518 46.526ZM129.173 46.0476H138.295V46.8264H129.173V46.0476ZM133.233 43.6111H134.146V46.3035H133.233V43.6111ZM133.2 38.727H134.012V39.5058C134.012 39.9434 133.934 40.355 133.779 40.7407C133.63 41.119 133.423 41.475 133.156 41.8088C132.888 42.1351 132.581 42.4281 132.232 42.6877C131.891 42.9473 131.524 43.1661 131.131 43.3441C130.738 43.5221 130.337 43.6519 129.929 43.7335L129.529 42.9658C129.885 42.9065 130.237 42.8026 130.586 42.6543C130.942 42.4986 131.275 42.3131 131.587 42.098C131.898 41.8755 132.176 41.6308 132.421 41.3638C132.666 41.0893 132.855 40.7964 132.989 40.4848C133.13 40.1659 133.2 39.8396 133.2 39.5058V38.727ZM133.367 38.727H134.168V39.5058C134.168 39.847 134.238 40.1733 134.379 40.4848C134.52 40.7964 134.713 41.0893 134.958 41.3638C135.203 41.6308 135.481 41.8755 135.792 42.098C136.111 42.3205 136.445 42.506 136.794 42.6543C137.15 42.8026 137.506 42.9065 137.862 42.9658L137.461 43.7335C137.053 43.6519 136.653 43.5221 136.26 43.3441C135.866 43.1661 135.496 42.9473 135.147 42.6877C134.798 42.4281 134.491 42.1351 134.224 41.8088C133.957 41.475 133.745 41.1153 133.589 40.7296C133.441 40.3439 133.367 39.936 133.367 39.5058V38.727ZM143.49 43.4108H144.402V45.1464H143.49V43.4108ZM139.407 42.9213H148.497V43.6667H139.407V42.9213ZM140.253 38.3821H147.629V39.1387H140.253V38.3821ZM140.286 41.2303H147.595V41.9868H140.286V41.2303ZM141.766 38.7159H142.689V41.7309H141.766V38.7159ZM145.192 38.7159H146.116V41.7309H145.192V38.7159ZM140.52 44.846H147.384V47.9945H140.52V44.846ZM146.483 45.5803H141.421V47.238H146.483V45.5803ZM150.988 45.8584L149.742 48.8512H149.063L149.875 45.8584H150.988ZM154.813 43.2662H163.903V44.0227H154.813V43.2662ZM158.896 42.0313H159.809V43.6111H158.896V42.0313ZM158.896 38.0372H159.809V39.4391H158.896V38.0372ZM158.852 39.5281H159.664V39.6838C159.664 40.0992 159.556 40.47 159.341 40.7964C159.134 41.1227 158.841 41.4045 158.462 41.6419C158.092 41.8792 157.661 42.0721 157.172 42.2204C156.69 42.3613 156.174 42.4615 155.625 42.5208L155.336 41.8088C155.826 41.7643 156.282 41.6827 156.705 41.564C157.127 41.4453 157.498 41.2933 157.817 41.1079C158.144 40.9224 158.396 40.7111 158.574 40.4737C158.759 40.2364 158.852 39.9731 158.852 39.6838V39.5281ZM159.052 39.5281H159.853V39.6838C159.853 39.9731 159.942 40.2364 160.12 40.4737C160.306 40.7111 160.558 40.9224 160.877 41.1079C161.203 41.2933 161.578 41.4453 162 41.564C162.423 41.6827 162.879 41.7643 163.369 41.8088L163.091 42.5208C162.542 42.4615 162.023 42.3613 161.533 42.2204C161.051 42.0721 160.621 41.8792 160.243 41.6419C159.872 41.4045 159.579 41.1227 159.364 40.7964C159.156 40.47 159.052 40.0992 159.052 39.6838V39.5281ZM155.748 39.0385H162.979V39.7839H155.748V39.0385ZM159.353 44.7681C160.435 44.7681 161.277 44.9128 161.878 45.202C162.486 45.4839 162.79 45.8955 162.79 46.437C162.79 46.9784 162.486 47.3901 161.878 47.6719C161.277 47.9612 160.435 48.1058 159.353 48.1058C158.27 48.1058 157.424 47.9612 156.816 47.6719C156.208 47.3901 155.904 46.9784 155.904 46.437C155.904 45.8955 156.208 45.4839 156.816 45.202C157.424 44.9128 158.27 44.7681 159.353 44.7681ZM159.353 45.4691C158.551 45.4691 157.932 45.5543 157.495 45.7249C157.057 45.8881 156.838 46.1255 156.838 46.437C156.838 46.7485 157.057 46.9895 157.495 47.1601C157.932 47.3233 158.551 47.4049 159.353 47.4049C160.146 47.4049 160.762 47.3233 161.199 47.1601C161.644 46.9895 161.867 46.7485 161.867 46.437C161.867 46.1255 161.644 45.8881 161.199 45.7249C160.762 45.5543 160.146 45.4691 159.353 45.4691ZM172.631 41.1301C172.468 40.3068 171.96 39.8952 171.107 39.8952C170.447 39.8952 169.953 40.1511 169.627 40.6629C169.301 41.1672 169.141 42.0016 169.149 43.1661C169.319 42.7804 169.601 42.48 169.994 42.2649C170.395 42.0424 170.84 41.9312 171.329 41.9312C172.093 41.9312 172.701 42.1685 173.154 42.6432C173.614 43.1179 173.844 43.7743 173.844 44.6124C173.844 45.1167 173.744 45.5692 173.543 45.9697C173.35 46.3702 173.054 46.6891 172.653 46.9265C172.26 47.1638 171.782 47.2825 171.218 47.2825C170.454 47.2825 169.857 47.1119 169.427 46.7707C168.997 46.4296 168.696 45.9586 168.526 45.3578C168.355 44.757 168.27 44.0153 168.27 43.1327C168.27 40.4107 169.219 39.0497 171.118 39.0497C171.845 39.0497 172.416 39.2462 172.831 39.6393C173.247 40.0324 173.491 40.5293 173.566 41.1301H172.631ZM171.118 42.7878C170.799 42.7878 170.499 42.8546 170.217 42.9881C169.935 43.1142 169.705 43.3107 169.527 43.5777C169.356 43.8373 169.271 44.1562 169.271 44.5345C169.271 45.0982 169.434 45.5581 169.761 45.9141C170.087 46.2627 170.554 46.437 171.162 46.437C171.682 46.437 172.093 46.2775 172.397 45.9586C172.709 45.6322 172.865 45.1946 172.865 44.6458C172.865 44.0672 172.716 43.6148 172.42 43.2885C172.123 42.9547 171.689 42.7878 171.118 42.7878ZM174.942 40.14V39.2165H177.034V47.2603H176.011V40.14H174.942ZM185.994 38.0706H186.917V45.5024H185.994V38.0706ZM183.813 41.1635H186.172V41.9312H183.813V41.1635ZM182.878 38.8383H183.857C183.857 39.7061 183.665 40.4997 183.279 41.2191C182.893 41.9312 182.352 42.5505 181.655 43.0771C180.957 43.6037 180.134 44.0265 179.185 44.3454L178.795 43.6C179.611 43.3255 180.327 42.9732 180.943 42.5431C181.558 42.1129 182.033 41.6159 182.367 41.0522C182.708 40.4886 182.878 39.8767 182.878 39.2165V38.8383ZM179.296 38.8383H183.479V39.6059H179.296V38.8383ZM180.553 47.149H187.173V47.9055H180.553V47.149ZM180.553 44.7459H181.488V47.5273H180.553V44.7459ZM188.852 49.3296V49.2295C189.616 48.4433 190.194 47.5273 190.588 46.4815C190.988 45.4357 191.188 44.338 191.188 43.1883C191.188 42.009 190.977 40.8742 190.554 39.7839C190.139 38.6862 189.516 37.748 188.685 36.9692V36.8691H189.742C190.521 37.5885 191.118 38.5045 191.533 39.6171C191.956 40.7222 192.167 41.9126 192.167 43.1883C192.167 44.4344 191.967 45.5951 191.567 46.6706C191.173 47.7461 190.621 48.6324 189.909 49.3296H188.852ZM19.2002 68.4481C20.1422 67.6916 20.8802 67.0722 21.4142 66.5901C21.9482 66.1006 22.3969 65.5926 22.7604 65.066C23.1312 64.5319 23.3166 64.009 23.3166 63.4973C23.3166 63.0152 23.198 62.6369 22.9606 62.3625C22.7307 62.0806 22.3561 61.9397 21.8369 61.9397C21.3326 61.9397 20.9395 62.0992 20.6576 62.4181C20.3832 62.7296 20.2349 63.1487 20.2126 63.6753H19.2336C19.2633 62.8446 19.5154 62.203 19.9901 61.7506C20.4648 61.2981 21.0767 61.0719 21.8258 61.0719C22.5898 61.0719 23.1943 61.2833 23.6393 61.7061C24.0917 62.1288 24.3179 62.7111 24.3179 63.4528C24.3179 64.0684 24.1325 64.6691 23.7617 65.2551C23.3982 65.8336 22.9829 66.3454 22.5156 66.7904C22.0483 67.228 21.4513 67.7398 20.7244 68.3257H24.5516V69.1713H19.2002V68.4481ZM28.8704 60.5379C29.3748 60.5379 29.8198 60.6269 30.2055 60.8049C30.5912 60.9755 30.8915 61.2165 31.1066 61.5281C31.3291 61.8321 31.4404 62.1919 31.4404 62.6072C31.4404 63.0077 31.3291 63.3675 31.1066 63.6864C30.8915 63.9979 30.5912 64.2427 30.2055 64.4207C29.8198 64.5913 29.3748 64.6766 28.8704 64.6766C28.3809 64.6766 27.9433 64.5913 27.5576 64.4207C27.1719 64.2427 26.8678 63.9979 26.6453 63.6864C26.4228 63.3675 26.3116 63.0077 26.3116 62.6072C26.3116 62.1919 26.4228 61.8321 26.6453 61.5281C26.8678 61.2165 27.1719 60.9755 27.5576 60.8049C27.9433 60.6269 28.3809 60.5379 28.8704 60.5379ZM28.8704 61.2944C28.5515 61.2944 28.2659 61.35 28.0138 61.4613C27.7616 61.5726 27.5613 61.7283 27.413 61.9286C27.2721 62.1214 27.2016 62.3476 27.2016 62.6072C27.2016 62.8594 27.2721 63.0856 27.413 63.2859C27.5613 63.4787 27.7616 63.6308 28.0138 63.742C28.2659 63.8533 28.5515 63.9089 28.8704 63.9089C29.2042 63.9089 29.4972 63.8533 29.7493 63.742C30.0015 63.6308 30.1981 63.4787 30.339 63.2859C30.4873 63.0856 30.5615 62.8594 30.5615 62.6072C30.5615 62.3476 30.4873 62.1214 30.339 61.9286C30.1981 61.7283 30.0015 61.5726 29.7493 61.4613C29.4972 61.35 29.2042 61.2944 28.8704 61.2944ZM28.4699 65.8002H29.3933V69.8165H28.4699V65.8002ZM32.9201 60.0706H33.8324V70.128H32.9201V60.0706ZM25.6885 66.3009L25.5662 65.5221C26.1892 65.5221 26.8715 65.5147 27.6132 65.4998C28.3624 65.485 29.13 65.4516 29.9162 65.3997C30.7098 65.3478 31.4701 65.2662 32.1969 65.155L32.2637 65.8447C31.5146 65.9857 30.7506 66.0895 29.9718 66.1562C29.1931 66.2156 28.4365 66.2527 27.7022 66.2675C26.9754 66.2823 26.3041 66.2935 25.6885 66.3009ZM36.446 69.327C36.2531 69.327 36.09 69.2603 35.9565 69.1267C35.823 68.9932 35.7562 68.8301 35.7562 68.6372C35.7562 68.4444 35.823 68.2812 35.9565 68.1477C36.09 68.0142 36.2531 67.9474 36.446 67.9474C36.6314 67.9474 36.7872 68.0142 36.9133 68.1477C37.0468 68.2812 37.1135 68.4444 37.1135 68.6372C37.1135 68.8301 37.0468 68.9932 36.9133 69.1267C36.7872 69.2603 36.6314 69.327 36.446 69.327ZM36.446 64.5653C36.2531 64.5653 36.09 64.4986 35.9565 64.365C35.823 64.2315 35.7562 64.0684 35.7562 63.8755C35.7562 63.6827 35.823 63.5195 35.9565 63.386C36.09 63.2525 36.2531 63.1857 36.446 63.1857C36.6314 63.1857 36.7872 63.2525 36.9133 63.386C37.0468 63.5195 37.1135 63.6827 37.1135 63.8755C37.1135 64.0684 37.0468 64.2315 36.9133 64.365C36.7872 64.4986 36.6314 64.5653 36.446 64.5653ZM47.9775 60.0595H48.8897V70.1392H47.9775V60.0595ZM48.6784 64.0535H50.5363V64.8323H48.6784V64.0535ZM41.5692 66.935H42.3702C42.9932 66.935 43.5643 66.9276 44.0835 66.9128C44.6101 66.8905 45.1182 66.8572 45.6077 66.8127C46.0972 66.7607 46.5942 66.6866 47.0985 66.5901L47.1875 67.3467C46.6684 67.4431 46.1603 67.5173 45.6634 67.5692C45.1738 67.6211 44.6621 67.6582 44.128 67.6804C43.594 67.7027 43.0081 67.7138 42.3702 67.7138H41.5692V66.935ZM41.5469 60.994H46.0861V64.6098H42.4815V67.2465H41.5692V63.8422H45.1738V61.7506H41.5469V60.994ZM58.7015 60.0595H59.6249V70.1392H58.7015V60.0595ZM54.3181 60.8383C54.815 60.8383 55.2526 60.9829 55.6309 61.2722C56.0166 61.554 56.317 61.9582 56.5321 62.4848C56.7546 63.0114 56.8658 63.6308 56.8658 64.3428C56.8658 65.0548 56.7546 65.6741 56.5321 66.2008C56.317 66.7274 56.0166 67.1353 55.6309 67.4246C55.2526 67.7138 54.815 67.8584 54.3181 67.8584C53.8212 67.8584 53.3799 67.7138 52.9942 67.4246C52.6085 67.1353 52.3044 66.7274 52.0819 66.2008C51.8668 65.6741 51.7592 65.0548 51.7592 64.3428C51.7592 63.6308 51.8668 63.0114 52.0819 62.4848C52.3044 61.9582 52.6085 61.554 52.9942 61.2722C53.3799 60.9829 53.8212 60.8383 54.3181 60.8383ZM54.3181 61.6616C53.9843 61.6616 53.6914 61.7728 53.4392 61.9953C53.1944 62.2104 53.0016 62.5219 52.8607 62.9299C52.7197 63.3304 52.6493 63.8014 52.6493 64.3428C52.6493 64.8842 52.7197 65.3589 52.8607 65.7669C53.0016 66.1674 53.1944 66.4789 53.4392 66.7014C53.6914 66.9239 53.9843 67.0352 54.3181 67.0352C54.6444 67.0352 54.93 66.9239 55.1748 66.7014C55.4269 66.4789 55.6235 66.1674 55.7644 65.7669C55.9053 65.3589 55.9758 64.8842 55.9758 64.3428C55.9758 63.8014 55.9053 63.3304 55.7644 62.9299C55.6235 62.5219 55.4269 62.2104 55.1748 61.9953C54.93 61.7728 54.6444 61.6616 54.3181 61.6616ZM66.6331 62.852H69.3922V63.6085H66.6331V62.852ZM68.9806 60.0706H69.904V67.4802H68.9806V60.0706ZM63.4846 69.149H70.1821V69.9055H63.4846V69.149ZM63.4846 66.7348H64.3969V69.4716H63.4846V66.7348ZM64.3747 60.7159C64.8642 60.7159 65.3018 60.8234 65.6875 61.0385C66.0806 61.2462 66.3884 61.5392 66.6109 61.9174C66.8408 62.2883 66.9558 62.7148 66.9558 63.1969C66.9558 63.6864 66.8408 64.1203 66.6109 64.4986C66.3884 64.8694 66.0806 65.1624 65.6875 65.3775C65.3018 65.5851 64.8642 65.689 64.3747 65.689C63.8777 65.689 63.4327 65.5851 63.0396 65.3775C62.6539 65.1624 62.3461 64.8694 62.1162 64.4986C61.8937 64.1203 61.7824 63.6864 61.7824 63.1969C61.7824 62.7148 61.8937 62.2883 62.1162 61.9174C62.3461 61.5392 62.6539 61.2462 63.0396 61.0385C63.4327 60.8234 63.8777 60.7159 64.3747 60.7159ZM64.3747 61.5281C64.0483 61.5281 63.7553 61.5985 63.4957 61.7394C63.2436 61.8804 63.0396 62.0769 62.8838 62.3291C62.7355 62.5813 62.6613 62.8705 62.6613 63.1969C62.6613 63.5306 62.7355 63.8236 62.8838 64.0758C63.0396 64.328 63.2436 64.5282 63.4957 64.6766C63.7553 64.8175 64.0483 64.8879 64.3747 64.8879C64.6936 64.8879 64.9828 64.8175 65.2424 64.6766C65.502 64.5282 65.706 64.328 65.8543 64.0758C66.0027 63.8236 66.0768 63.5306 66.0768 63.1969C66.0768 62.8705 66.0027 62.5813 65.8543 62.3291C65.706 62.0769 65.502 61.8804 65.2424 61.7394C64.9828 61.5985 64.6936 61.5281 64.3747 61.5281ZM79.2152 60.0595H80.1274V65.1772H79.2152V60.0595ZM76.8454 62.2957H79.6379V63.0522H76.8454V62.2957ZM74.6092 60.4044C75.1061 60.4044 75.5475 60.5008 75.9331 60.6936C76.3262 60.8865 76.634 61.1535 76.8566 61.4947C77.0791 61.8359 77.1903 62.2327 77.1903 62.6851C77.1903 63.1301 77.0791 63.5269 76.8566 63.8755C76.634 64.2167 76.3262 64.4874 75.9331 64.6877C75.5475 64.8805 75.1061 64.9769 74.6092 64.9769C74.1049 64.9769 73.6561 64.8805 73.263 64.6877C72.8773 64.4874 72.5733 64.2167 72.3507 63.8755C72.1282 63.5269 72.017 63.1301 72.017 62.6851C72.017 62.2327 72.1282 61.8359 72.3507 61.4947C72.5733 61.1535 72.8773 60.8865 73.263 60.6936C73.6561 60.5008 74.1049 60.4044 74.6092 60.4044ZM74.6092 61.1609C74.2829 61.1609 73.9899 61.2277 73.7303 61.3612C73.4707 61.4873 73.2667 61.6653 73.1184 61.8952C72.9701 62.1251 72.8959 62.3884 72.8959 62.6851C72.8959 62.9818 72.9701 63.2488 73.1184 63.4861C73.2667 63.7161 73.4707 63.8978 73.7303 64.0313C73.9899 64.1574 74.2829 64.2204 74.6092 64.2204C74.9356 64.2204 75.2248 64.1574 75.477 64.0313C75.7366 63.8978 75.9406 63.7161 76.0889 63.4861C76.2372 63.2488 76.3114 62.9818 76.3114 62.6851C76.3114 62.3884 76.2372 62.1251 76.0889 61.8952C75.9406 61.6653 75.7366 61.4873 75.477 61.3612C75.2248 61.2277 74.9356 61.1609 74.6092 61.1609ZM73.6524 65.7335H80.1274V68.1588H74.587V69.6608H73.6747V67.4579H79.2152V66.4678H73.6524V65.7335ZM73.6747 69.2491H80.5057V69.9945H73.6747V69.2491ZM83.2528 60.4711H89.7279V61.2165H83.2528V60.4711ZM82.0958 63.6864H91.2187V64.4318H82.0958V63.6864ZM86.1788 64.0869H87.0911V66.0784H86.1788V64.0869ZM89.1271 60.4711H90.0394V61.1164C90.0394 61.4724 90.0282 61.8878 90.006 62.3625C89.9837 62.8372 89.9059 63.3786 89.7724 63.9868L88.8601 63.8978C88.9936 63.2822 89.0715 62.7519 89.0937 62.3068C89.116 61.8618 89.1271 61.465 89.1271 61.1164V60.4711ZM83.175 65.7224H90.0616V68.1588H84.1095V69.5384H83.1972V67.5024H89.1493V66.4566H83.175V65.7224ZM83.1972 69.2714H90.3175V70.0057H83.1972V69.2714ZM92.3303 65.3552H101.42V66.1006H92.3303V65.3552ZM93.4985 69.149H100.407V69.9055H93.4985V69.149ZM93.4985 66.9907H94.4219V69.3715H93.4985V66.9907ZM96.8695 60.4044C97.589 60.4044 98.212 60.486 98.7386 60.6491C99.2726 60.8049 99.6843 61.0348 99.9735 61.3389C100.263 61.6356 100.407 61.9916 100.407 62.407C100.407 62.8223 100.263 63.182 99.9735 63.4861C99.6843 63.7902 99.2726 64.0239 98.7386 64.187C98.212 64.3428 97.589 64.4207 96.8695 64.4207C96.1501 64.4207 95.5234 64.3428 94.9893 64.187C94.4627 64.0239 94.0548 63.7902 93.7655 63.4861C93.4763 63.182 93.3316 62.8223 93.3316 62.407C93.3316 61.9916 93.4763 61.6356 93.7655 61.3389C94.0548 61.0348 94.4627 60.8049 94.9893 60.6491C95.5234 60.486 96.1501 60.4044 96.8695 60.4044ZM96.8695 61.1498C96.3503 61.1498 95.8942 61.2017 95.5011 61.3055C95.1154 61.402 94.815 61.5466 94.5999 61.7394C94.3848 61.9249 94.2773 62.1474 94.2773 62.407C94.2773 62.6666 94.3848 62.8928 94.5999 63.0856C94.815 63.271 95.1154 63.4157 95.5011 63.5195C95.8942 63.6159 96.3503 63.6641 96.8695 63.6641C97.4036 63.6641 97.8634 63.6159 98.2491 63.5195C98.6348 63.4157 98.9315 63.271 99.1391 63.0856C99.3542 62.8928 99.4618 62.6666 99.4618 62.407C99.4618 62.1474 99.3542 61.9249 99.1391 61.7394C98.9315 61.5466 98.6348 61.402 98.2491 61.3055C97.8634 61.2017 97.4036 61.1498 96.8695 61.1498ZM109.452 60.0706H110.375V67.6137H109.452V60.0706ZM110.086 63.3749H111.855V64.1425H110.086V63.3749ZM102.587 61.2944H108.528V62.0398H102.587V61.2944ZM105.558 62.585C106.032 62.585 106.451 62.6666 106.815 62.8297C107.178 62.9855 107.46 63.2043 107.66 63.4861C107.861 63.7606 107.961 64.0869 107.961 64.4652C107.961 64.8434 107.861 65.1735 107.66 65.4553C107.46 65.7298 107.178 65.9449 106.815 66.1006C106.451 66.2564 106.032 66.3343 105.558 66.3343C105.083 66.3343 104.664 66.2564 104.3 66.1006C103.937 65.9449 103.651 65.7298 103.444 65.4553C103.244 65.1735 103.143 64.8434 103.143 64.4652C103.143 64.0869 103.244 63.7606 103.444 63.4861C103.651 63.2043 103.937 62.9855 104.3 62.8297C104.664 62.6666 105.083 62.585 105.558 62.585ZM105.558 63.3081C105.105 63.3081 104.738 63.4157 104.456 63.6308C104.174 63.8384 104.033 64.1166 104.033 64.4652C104.033 64.8138 104.174 65.0919 104.456 65.2996C104.738 65.5073 105.105 65.6111 105.558 65.6111C106.018 65.6111 106.385 65.5073 106.659 65.2996C106.941 65.0919 107.082 64.8138 107.082 64.4652C107.082 64.1166 106.941 63.8384 106.659 63.6308C106.385 63.4157 106.018 63.3081 105.558 63.3081ZM105.102 60.0706H106.025V61.6727H105.102V60.0706ZM104.111 69.149H110.82V69.9055H104.111V69.149ZM104.111 67.0129H105.024V69.4605H104.111V67.0129ZM119.619 60.0595H120.532V70.1392H119.619V60.0595ZM120.32 64.0535H122.178V64.8323H120.32V64.0535ZM113.211 66.935H114.012C114.635 66.935 115.206 66.9276 115.725 66.9128C116.252 66.8905 116.76 66.8572 117.25 66.8127C117.739 66.7607 118.236 66.6866 118.74 66.5901L118.829 67.3467C118.31 67.4431 117.802 67.5173 117.305 67.5692C116.816 67.6211 116.304 67.6582 115.77 67.6804C115.236 67.7027 114.65 67.7138 114.012 67.7138H113.211V66.935ZM113.189 60.994H117.728V64.6098H114.123V67.2465H113.211V63.8422H116.816V61.7506H113.189V60.994ZM123.034 65.0993H132.124V65.8559H123.034V65.0993ZM127.117 63.7086H128.04V65.3441H127.117V63.7086ZM127.562 66.5901C128.645 66.5901 129.491 66.7422 130.099 67.0463C130.707 67.3504 131.011 67.7843 131.011 68.348C131.011 68.9117 130.707 69.3455 130.099 69.6496C129.491 69.9537 128.645 70.1058 127.562 70.1058C126.494 70.1058 125.656 69.9537 125.048 69.6496C124.44 69.3455 124.135 68.9117 124.135 68.348C124.135 67.7843 124.44 67.3504 125.048 67.0463C125.656 66.7422 126.494 66.5901 127.562 66.5901ZM127.573 67.3133C127.047 67.3133 126.594 67.3541 126.216 67.4357C125.845 67.5173 125.56 67.6359 125.359 67.7917C125.159 67.94 125.059 68.1255 125.059 68.348C125.059 68.5705 125.159 68.7596 125.359 68.9154C125.56 69.0711 125.845 69.1898 126.216 69.2714C126.594 69.353 127.047 69.3938 127.573 69.3938C128.1 69.3938 128.549 69.353 128.919 69.2714C129.29 69.1898 129.576 69.0711 129.776 68.9154C129.976 68.7596 130.076 68.5705 130.076 68.348C130.076 68.1255 129.976 67.94 129.776 67.7917C129.576 67.6359 129.29 67.5173 128.919 67.4357C128.549 67.3541 128.1 67.3133 127.573 67.3133ZM124.236 60.3265H125.148V61.4391H130.021V60.3265H130.933V64.0313H124.236V60.3265ZM125.148 62.1622V63.297H130.021V62.1622H125.148ZM136.172 71.3296C135.46 70.6324 134.904 69.7461 134.504 68.6706C134.11 67.5951 133.914 66.4344 133.914 65.1883C133.914 63.9126 134.122 62.7222 134.537 61.6171C134.96 60.5045 135.56 59.5885 136.339 58.8691H137.396V58.9692C136.565 59.748 135.939 60.6862 135.516 61.7839C135.101 62.8742 134.893 64.009 134.893 65.1883C134.893 66.338 135.089 67.4357 135.483 68.4815C135.883 69.5273 136.465 70.4433 137.229 71.2295V71.3296H136.172ZM139.478 64.7656H146.387V65.511H139.478V64.7656ZM138.321 68.0921H147.444V68.8597H138.321V68.0921ZM142.404 65.0882H143.316V68.3925H142.404V65.0882ZM139.478 60.8605H146.287V61.6282H140.401V65.0993H139.478V60.8605ZM153.584 63.475H156.376V64.2315H153.584V63.475ZM151.147 60.9273H151.904V62.7296C151.904 63.2859 151.834 63.8347 151.693 64.3762C151.559 64.9176 151.366 65.422 151.114 65.8892C150.862 66.3565 150.565 66.7719 150.224 67.1353C149.89 67.4987 149.523 67.788 149.123 68.0031L148.544 67.2577C148.915 67.0797 149.256 66.8312 149.568 66.5123C149.887 66.1933 150.165 65.8299 150.402 65.422C150.639 65.0066 150.821 64.5727 150.947 64.1203C151.081 63.6604 151.147 63.1969 151.147 62.7296V60.9273ZM151.337 60.9273H152.082V62.7296C152.082 63.182 152.145 63.6308 152.271 64.0758C152.405 64.5208 152.59 64.9399 152.827 65.333C153.065 65.7186 153.339 66.0635 153.651 66.3676C153.97 66.6717 154.311 66.9091 154.674 67.0797L154.118 67.8251C153.717 67.6174 153.347 67.3393 153.005 66.9907C152.664 66.6421 152.368 66.2415 152.115 65.7891C151.871 65.3367 151.678 64.8509 151.537 64.3317C151.403 63.8125 151.337 63.2785 151.337 62.7296V60.9273ZM155.92 60.0595H156.833V70.1392H155.92V60.0595ZM160.136 67.8584L158.89 70.8512H158.211L159.023 67.8584H160.136ZM163.961 65.2662H173.051V66.0227H163.961V65.2662ZM168.044 64.0313H168.957V65.6111H168.044V64.0313ZM168.044 60.0372H168.957V61.4391H168.044V60.0372ZM168 61.5281H168.812V61.6838C168.812 62.0992 168.705 62.47 168.489 62.7964C168.282 63.1227 167.989 63.4045 167.611 63.6419C167.24 63.8792 166.81 64.0721 166.32 64.2204C165.838 64.3613 165.322 64.4615 164.774 64.5208L164.484 63.8088C164.974 63.7643 165.43 63.6827 165.853 63.564C166.276 63.4453 166.646 63.2933 166.965 63.1079C167.292 62.9224 167.544 62.7111 167.722 62.4737C167.907 62.2364 168 61.9731 168 61.6838V61.5281ZM168.2 61.5281H169.001V61.6838C169.001 61.9731 169.09 62.2364 169.268 62.4737C169.454 62.7111 169.706 62.9224 170.025 63.1079C170.351 63.2933 170.726 63.4453 171.148 63.564C171.571 63.6827 172.027 63.7643 172.517 63.8088L172.239 64.5208C171.69 64.4615 171.171 64.3613 170.681 64.2204C170.199 64.0721 169.769 63.8792 169.391 63.6419C169.02 63.4045 168.727 63.1227 168.512 62.7964C168.304 62.47 168.2 62.0992 168.2 61.6838V61.5281ZM164.896 61.0385H172.128V61.7839H164.896V61.0385ZM168.501 66.7681C169.583 66.7681 170.425 66.9128 171.026 67.202C171.634 67.4839 171.938 67.8955 171.938 68.437C171.938 68.9784 171.634 69.3901 171.026 69.6719C170.425 69.9612 169.583 70.1058 168.501 70.1058C167.418 70.1058 166.572 69.9612 165.964 69.6719C165.356 69.3901 165.052 68.9784 165.052 68.437C165.052 67.8955 165.356 67.4839 165.964 67.202C166.572 66.9128 167.418 66.7681 168.501 66.7681ZM168.501 67.4691C167.7 67.4691 167.08 67.5543 166.643 67.7249C166.205 67.8881 165.986 68.1255 165.986 68.437C165.986 68.7485 166.205 68.9895 166.643 69.1601C167.08 69.3233 167.7 69.4049 168.501 69.4049C169.294 69.4049 169.91 69.3233 170.347 69.1601C170.792 68.9895 171.015 68.7485 171.015 68.437C171.015 68.1255 170.792 67.8881 170.347 67.7249C169.91 67.5543 169.294 67.4691 168.501 67.4691ZM182.424 62.0955H178.519V64.6321C178.69 64.3947 178.942 64.2019 179.276 64.0535C179.61 63.8978 179.969 63.8199 180.355 63.8199C180.971 63.8199 181.471 63.9497 181.857 64.2093C182.243 64.4615 182.517 64.7915 182.68 65.1995C182.851 65.6 182.936 66.0265 182.936 66.4789C182.936 67.0129 182.836 67.4913 182.636 67.9141C182.436 68.3368 182.128 68.6706 181.712 68.9154C181.304 69.1601 180.796 69.2825 180.188 69.2825C179.409 69.2825 178.779 69.0822 178.297 68.6817C177.815 68.2812 177.522 67.7472 177.418 67.0797H178.408C178.505 67.5024 178.708 67.8325 179.02 68.0698C179.331 68.3072 179.725 68.4258 180.199 68.4258C180.785 68.4258 181.227 68.2515 181.523 67.9029C181.82 67.5469 181.968 67.0797 181.968 66.5011C181.968 65.9226 181.82 65.4776 181.523 65.1661C181.227 64.8472 180.789 64.6877 180.21 64.6877C179.817 64.6877 179.472 64.7841 179.176 64.9769C178.886 65.1624 178.675 65.4183 178.542 65.7446H177.585V61.2054H182.424V62.0955ZM189.41 62.0955H185.505V64.6321C185.676 64.3947 185.928 64.2019 186.262 64.0535C186.596 63.8978 186.955 63.8199 187.341 63.8199C187.957 63.8199 188.457 63.9497 188.843 64.2093C189.229 64.4615 189.503 64.7915 189.666 65.1995C189.837 65.6 189.922 66.0265 189.922 66.4789C189.922 67.0129 189.822 67.4913 189.622 67.9141C189.422 68.3368 189.114 68.6706 188.698 68.9154C188.29 69.1601 187.782 69.2825 187.174 69.2825C186.395 69.2825 185.765 69.0822 185.283 68.6817C184.801 68.2812 184.508 67.7472 184.404 67.0797H185.394C185.491 67.5024 185.694 67.8325 186.006 68.0698C186.318 68.3072 186.711 68.4258 187.185 68.4258C187.771 68.4258 188.213 68.2515 188.509 67.9029C188.806 67.5469 188.954 67.0797 188.954 66.5011C188.954 65.9226 188.806 65.4776 188.509 65.1661C188.213 64.8472 187.775 64.6877 187.196 64.6877C186.803 64.6877 186.458 64.7841 186.162 64.9769C185.872 65.1624 185.661 65.4183 185.528 65.7446H184.571V61.2054H189.41V62.0955ZM198.488 60.0706H199.411V67.5024H198.488V60.0706ZM196.307 63.1635H198.666V63.9312H196.307V63.1635ZM195.373 60.8383H196.352C196.352 61.7061 196.159 62.4997 195.773 63.2191C195.388 63.9312 194.846 64.5505 194.149 65.0771C193.452 65.6037 192.629 66.0265 191.679 66.3454L191.29 65.6C192.106 65.3255 192.821 64.9732 193.437 64.5431C194.053 64.1129 194.527 63.6159 194.861 63.0522C195.202 62.4886 195.373 61.8767 195.373 61.2165V60.8383ZM191.79 60.8383H195.974V61.6059H191.79V60.8383ZM193.048 69.149H199.667V69.9055H193.048V69.149ZM193.048 66.7459H193.982V69.5273H193.048V66.7459ZM201.346 71.3296V71.2295C202.11 70.4433 202.689 69.5273 203.082 68.4815C203.482 67.4357 203.683 66.338 203.683 65.1883C203.683 64.009 203.471 62.8742 203.049 61.7839C202.633 60.6862 202.01 59.748 201.179 58.9692V58.8691H202.236C203.015 59.5885 203.612 60.5045 204.028 61.6171C204.45 62.7222 204.662 63.9126 204.662 65.1883C204.662 66.4344 204.462 67.5951 204.061 68.6706C203.668 69.7461 203.115 70.6324 202.403 71.3296H201.346ZM19.3003 85.2414C19.3523 84.559 19.6156 84.025 20.0902 83.6393C20.5649 83.2536 21.1805 83.0608 21.9371 83.0608C22.4414 83.0608 22.8753 83.1535 23.2388 83.3389C23.6096 83.5169 23.8877 83.7617 24.0732 84.0732C24.266 84.3847 24.3624 84.737 24.3624 85.1301C24.3624 85.59 24.2289 85.9868 23.9619 86.3205C23.7023 86.6543 23.3611 86.8694 22.9384 86.9658V87.0215C23.4205 87.1401 23.8024 87.3738 24.0843 87.7224C24.3661 88.071 24.5071 88.5271 24.5071 89.0908C24.5071 89.5136 24.4106 89.8955 24.2178 90.2367C24.025 90.5705 23.7357 90.8338 23.35 91.0266C22.9643 91.2195 22.5008 91.3159 21.9593 91.3159C21.1731 91.3159 20.5279 91.1119 20.0235 90.704C19.5191 90.2886 19.2373 89.7027 19.178 88.9462H20.157C20.2089 89.3912 20.3906 89.7546 20.7021 90.0365C21.0137 90.3183 21.429 90.4592 21.9482 90.4592C22.4674 90.4592 22.8605 90.3257 23.1275 90.0587C23.4019 89.7843 23.5391 89.432 23.5391 89.0018C23.5391 88.4455 23.3537 88.045 22.9829 87.8002C22.612 87.5555 22.052 87.4331 21.3029 87.4331H21.047V86.5876H21.3141C21.9964 86.5801 22.5119 86.4689 22.8605 86.2538C23.2091 86.0313 23.3834 85.6901 23.3834 85.2303C23.3834 84.8372 23.2536 84.5219 22.994 84.2846C22.7418 84.0472 22.3784 83.9286 21.9037 83.9286C21.4438 83.9286 21.073 84.0472 20.7912 84.2846C20.5093 84.5219 20.3424 84.8409 20.2905 85.2414H19.3003ZM29.0225 82.5379C29.5269 82.5379 29.9719 82.6269 30.3576 82.8049C30.7433 82.9755 31.0436 83.2165 31.2587 83.5281C31.4812 83.8321 31.5925 84.1919 31.5925 84.6072C31.5925 85.0077 31.4812 85.3675 31.2587 85.6864C31.0436 85.9979 30.7433 86.2427 30.3576 86.4207C29.9719 86.5913 29.5269 86.6766 29.0225 86.6766C28.533 86.6766 28.0954 86.5913 27.7097 86.4207C27.324 86.2427 27.0199 85.9979 26.7974 85.6864C26.5749 85.3675 26.4637 85.0077 26.4637 84.6072C26.4637 84.1919 26.5749 83.8321 26.7974 83.5281C27.0199 83.2165 27.324 82.9755 27.7097 82.8049C28.0954 82.6269 28.533 82.5379 29.0225 82.5379ZM29.0225 83.2944C28.7036 83.2944 28.418 83.35 28.1659 83.4613C27.9137 83.5726 27.7134 83.7283 27.5651 83.9286C27.4242 84.1214 27.3537 84.3476 27.3537 84.6072C27.3537 84.8594 27.4242 85.0856 27.5651 85.2859C27.7134 85.4787 27.9137 85.6308 28.1659 85.742C28.418 85.8533 28.7036 85.9089 29.0225 85.9089C29.3563 85.9089 29.6493 85.8533 29.9014 85.742C30.1536 85.6308 30.3502 85.4787 30.4911 85.2859C30.6394 85.0856 30.7136 84.8594 30.7136 84.6072C30.7136 84.3476 30.6394 84.1214 30.4911 83.9286C30.3502 83.7283 30.1536 83.5726 29.9014 83.4613C29.6493 83.35 29.3563 83.2944 29.0225 83.2944ZM28.622 87.8002H29.5454V91.8165H28.622V87.8002ZM33.0722 82.0706H33.9845V92.128H33.0722V82.0706ZM25.8406 88.3009L25.7183 87.5221C26.3413 87.5221 27.0236 87.5147 27.7653 87.4998C28.5145 87.485 29.2821 87.4516 30.0683 87.3997C30.8619 87.3478 31.6222 87.2662 32.349 87.155L32.4158 87.8447C31.6667 87.9857 30.9027 88.0895 30.1239 88.1562C29.3452 88.2156 28.5886 88.2527 27.8543 88.2675C27.1275 88.2823 26.4562 88.2935 25.8406 88.3009ZM39.5642 91.327C39.3713 91.327 39.2081 91.2603 39.0746 91.1267C38.9411 90.9932 38.8744 90.8301 38.8744 90.6372C38.8744 90.4444 38.9411 90.2812 39.0746 90.1477C39.2081 90.0142 39.3713 89.9474 39.5642 89.9474C39.7496 89.9474 39.9053 90.0142 40.0314 90.1477C40.1649 90.2812 40.2317 90.4444 40.2317 90.6372C40.2317 90.8301 40.1649 90.9932 40.0314 91.1267C39.9053 91.2603 39.7496 91.327 39.5642 91.327ZM39.5642 86.5653C39.3713 86.5653 39.2081 86.4986 39.0746 86.365C38.9411 86.2315 38.8744 86.0684 38.8744 85.8755C38.8744 85.6827 38.9411 85.5195 39.0746 85.386C39.2081 85.2525 39.3713 85.1857 39.5642 85.1857C39.7496 85.1857 39.9053 85.2525 40.0314 85.386C40.1649 85.5195 40.2317 85.6827 40.2317 85.8755C40.2317 86.0684 40.1649 86.2315 40.0314 86.365C39.9053 86.4986 39.7496 86.5653 39.5642 86.5653ZM48.3588 85.1079H49.2822V86.9102H48.3588V85.1079ZM45.4884 84.7296H52.286V85.475H45.4884V84.7296ZM45.4884 82.4489H52.1859V83.2054H46.4007V85.1412H45.4884V82.4489ZM44.2757 86.4318H53.3652V87.1772H44.2757V86.4318ZM45.3771 88.0227H52.197V90.2812H46.3005V91.505H45.3994V89.6137H51.2959V88.7236H45.3771V88.0227ZM45.3994 91.2825H52.4974V92.0057H45.3994V91.2825ZM61.3302 82.0595H62.2425V92.128H61.3302V82.0595ZM62.0311 86.1982H63.889V86.9769H62.0311V86.1982ZM54.4546 83.6727H60.3845V84.4292H54.4546V83.6727ZM57.4696 85.2525C57.9443 85.2525 58.3634 85.3526 58.7268 85.5529C59.0977 85.7531 59.3869 86.0276 59.5946 86.3762C59.8097 86.7174 59.9172 87.1142 59.9172 87.5666C59.9172 88.019 59.8097 88.4196 59.5946 88.7681C59.3869 89.1167 59.0977 89.3912 58.7268 89.5914C58.3634 89.7843 57.9443 89.8807 57.4696 89.8807C56.995 89.8807 56.5722 89.7843 56.2013 89.5914C55.8379 89.3912 55.5486 89.1167 55.3336 88.7681C55.1185 88.4196 55.0109 88.019 55.0109 87.5666C55.0109 87.1142 55.1185 86.7174 55.3336 86.3762C55.5486 86.0276 55.8379 85.7531 56.2013 85.5529C56.5722 85.3526 56.995 85.2525 57.4696 85.2525ZM57.4696 86.0202C57.1656 86.0202 56.8948 86.0869 56.6575 86.2204C56.4201 86.3539 56.231 86.5356 56.0901 86.7656C55.9566 86.9955 55.8898 87.2625 55.8898 87.5666C55.8898 87.8707 55.9566 88.1414 56.0901 88.3788C56.231 88.6087 56.4201 88.7904 56.6575 88.9239C56.8948 89.05 57.1656 89.113 57.4696 89.113C57.7663 89.113 58.0333 89.05 58.2707 88.9239C58.508 88.7904 58.6934 88.6087 58.827 88.3788C58.9679 88.1414 59.0383 87.8707 59.0383 87.5666C59.0383 87.2625 58.9679 86.9955 58.827 86.7656C58.6934 86.5356 58.508 86.3539 58.2707 86.2204C58.0333 86.0869 57.7663 86.0202 57.4696 86.0202ZM56.9913 82.1819H57.9147V84.0064H56.9913V82.1819ZM64.7448 90.0921H73.8677V90.8597H64.7448V90.0921ZM65.8574 82.8271H72.7329V85.8867H66.7919V87.8892H65.8796V85.1412H71.8206V83.5837H65.8574V82.8271ZM65.8796 87.511H72.9666V88.2564H65.8796V87.511ZM82.1442 82.0595H83.0454V88.223H82.1442V82.0595ZM82.5558 84.6517H84.2914V85.4194H82.5558V84.6517ZM75.2464 82.7938H76.0252V84.3625H77.16V82.7938H77.9388V87.422H75.2464V82.7938ZM76.0252 85.0967V86.6766H77.16V85.0967H76.0252ZM78.5618 82.7938H79.3406V84.3625H80.4643V82.7938H81.243V87.422H78.5618V82.7938ZM79.3406 85.0967V86.6766H80.4643V85.0967H79.3406ZM79.7522 88.4121C80.4494 88.4121 81.0502 88.4863 81.5545 88.6346C82.0589 88.7756 82.4446 88.9832 82.7116 89.2577C82.986 89.5321 83.1232 89.8659 83.1232 90.259C83.1232 90.8449 82.8229 91.2973 82.2221 91.6163C81.6213 91.9426 80.798 92.1058 79.7522 92.1058C78.7064 92.1058 77.8831 91.9426 77.2824 91.6163C76.6816 91.2973 76.3812 90.8449 76.3812 90.259C76.3812 89.8659 76.5184 89.5358 76.7928 89.2688C77.0673 88.9944 77.453 88.783 77.9499 88.6346C78.4543 88.4863 79.055 88.4121 79.7522 88.4121ZM79.7522 89.1353C79.2479 89.1353 78.8103 89.1798 78.4394 89.2688C78.076 89.3578 77.7978 89.4876 77.605 89.6582C77.4122 89.8214 77.3157 90.0216 77.3157 90.259C77.3157 90.4963 77.4122 90.7003 77.605 90.8709C77.7978 91.034 78.076 91.1601 78.4394 91.2491C78.8103 91.3381 79.2479 91.3826 79.7522 91.3826C80.2566 91.3826 80.6905 91.3381 81.0539 91.2491C81.4248 91.1601 81.7066 91.034 81.8994 90.8709C82.0997 90.7003 82.1998 90.4963 82.1998 90.259C82.1998 90.0216 82.0997 89.8214 81.8994 89.6582C81.7066 89.4876 81.4248 89.3578 81.0539 89.2688C80.6905 89.1798 80.2566 89.1353 79.7522 89.1353ZM88.1177 93.3296C87.4057 92.6324 86.8494 91.7461 86.4489 90.6706C86.0558 89.5951 85.8592 88.4344 85.8592 87.1883C85.8592 85.9126 86.0669 84.7222 86.4823 83.6171C86.905 82.5045 87.5058 81.5885 88.2846 80.8691H89.3415V80.9692C88.5108 81.748 87.8841 82.6862 87.4613 83.7839C87.046 84.8742 86.8383 86.009 86.8383 87.1883C86.8383 88.338 87.0348 89.4357 87.4279 90.4815C87.8284 91.5273 88.4107 92.4433 89.1746 93.2295V93.3296H88.1177ZM94.7719 88.4121C95.4913 88.4121 96.1106 88.4863 96.6298 88.6346C97.1564 88.783 97.5606 88.9944 97.8425 89.2688C98.1317 89.5432 98.2764 89.877 98.2764 90.2701C98.2764 90.6484 98.1317 90.9784 97.8425 91.2603C97.5606 91.5347 97.1564 91.7424 96.6298 91.8833C96.1106 92.0316 95.4913 92.1058 94.7719 92.1058C94.0598 92.1058 93.4405 92.0316 92.9139 91.8833C92.3873 91.7424 91.9831 91.5347 91.7012 91.2603C91.4194 90.9784 91.2785 90.6484 91.2785 90.2701C91.2785 89.877 91.4194 89.5432 91.7012 89.2688C91.9831 88.9944 92.3873 88.783 92.9139 88.6346C93.4405 88.4863 94.0598 88.4121 94.7719 88.4121ZM94.7719 89.1242C94.2453 89.1242 93.7891 89.1724 93.4034 89.2688C93.0177 89.3578 92.7174 89.4876 92.5023 89.6582C92.2946 89.8288 92.1907 90.0327 92.1907 90.2701C92.1907 90.4926 92.2946 90.6891 92.5023 90.8597C92.7174 91.0303 93.0177 91.1601 93.4034 91.2491C93.7891 91.3381 94.2453 91.3826 94.7719 91.3826C95.3059 91.3826 95.7657 91.3381 96.1514 91.2491C96.5371 91.1601 96.8338 91.0303 97.0415 90.8597C97.2565 90.6891 97.3641 90.4926 97.3641 90.2701C97.3641 90.0327 97.2565 89.8288 97.0415 89.6582C96.8338 89.4876 96.5371 89.3578 96.1514 89.2688C95.7657 89.1724 95.3059 89.1242 94.7719 89.1242ZM91.3452 82.5713H97.8202V83.3167H91.3452V82.5713ZM90.2772 86.7433H99.3444V87.4998H90.2772V86.7433ZM94.0042 84.8075H94.9165V86.9658H94.0042V84.8075ZM97.2862 82.5713H98.1985V83.4168C98.1985 83.8247 98.1874 84.2438 98.1651 84.674C98.1429 85.0967 98.0613 85.5677 97.9204 86.0869L97.0192 85.9868C97.1527 85.4676 97.2306 85.0077 97.2528 84.6072C97.2751 84.2067 97.2862 83.8099 97.2862 83.4168V82.5713ZM104.506 84.496H106.475V85.2525H104.506V84.496ZM104.506 87.5555H106.475V88.3231H104.506V87.5555ZM108.166 82.0595H109.056V92.128H108.166V82.0595ZM106.186 82.2709H107.065V91.6163H106.186V82.2709ZM102.759 82.905C103.197 82.905 103.575 83.0459 103.894 83.3278C104.22 83.6096 104.472 84.0139 104.65 84.5405C104.828 85.0671 104.917 85.6864 104.917 86.3984C104.917 87.1179 104.828 87.7409 104.65 88.2675C104.472 88.7941 104.22 89.202 103.894 89.4913C103.575 89.7731 103.197 89.9141 102.759 89.9141C102.336 89.9141 101.962 89.7731 101.635 89.4913C101.316 89.202 101.068 88.7941 100.89 88.2675C100.712 87.7409 100.623 87.1179 100.623 86.3984C100.623 85.6864 100.712 85.0671 100.89 84.5405C101.068 84.0139 101.316 83.6096 101.635 83.3278C101.962 83.0459 102.336 82.905 102.759 82.905ZM102.759 83.7617C102.499 83.7617 102.27 83.8692 102.069 84.0843C101.876 84.2994 101.728 84.6035 101.624 84.9966C101.52 85.3897 101.469 85.857 101.469 86.3984C101.469 86.9399 101.52 87.4108 101.624 87.8114C101.728 88.2045 101.876 88.5086 102.069 88.7236C102.27 88.9387 102.499 89.0463 102.759 89.0463C103.034 89.0463 103.267 88.9387 103.46 88.7236C103.653 88.5086 103.801 88.2045 103.905 87.8114C104.016 87.4108 104.072 86.9399 104.072 86.3984C104.072 85.857 104.016 85.3897 103.905 84.9966C103.801 84.6035 103.653 84.2994 103.46 84.0843C103.267 83.8692 103.034 83.7617 102.759 83.7617ZM116.988 91.2603L115.975 90.2367C115.597 90.6298 115.193 90.9228 114.763 91.1156C114.332 91.301 113.847 91.3938 113.305 91.3938C112.771 91.3938 112.296 91.2973 111.881 91.1045C111.473 90.9117 111.154 90.6372 110.924 90.2812C110.702 89.9252 110.591 89.5098 110.591 89.0352C110.591 88.4937 110.743 88.019 111.047 87.6111C111.358 87.1957 111.814 86.8694 112.415 86.6321C112.178 86.3502 112.007 86.0906 111.903 85.8533C111.8 85.6159 111.748 85.3563 111.748 85.0745C111.748 84.7481 111.829 84.4552 111.992 84.1956C112.163 83.9286 112.404 83.7209 112.716 83.5726C113.027 83.4242 113.387 83.35 113.795 83.35C114.195 83.35 114.544 83.4279 114.84 83.5837C115.137 83.7394 115.36 83.9582 115.508 84.2401C115.656 84.5145 115.723 84.8223 115.708 85.1635H114.696C114.703 84.8594 114.618 84.6221 114.44 84.4515C114.262 84.2735 114.032 84.1845 113.75 84.1845C113.453 84.1845 113.212 84.2698 113.027 84.4403C112.849 84.6035 112.76 84.8149 112.76 85.0745C112.76 85.297 112.819 85.5121 112.938 85.7198C113.064 85.9274 113.272 86.1833 113.561 86.4874L115.875 88.8127L116.075 88.5011L116.832 87.2328H117.922L117.01 88.8127C116.884 89.0352 116.736 89.2688 116.565 89.5136L118.312 91.2603H116.988ZM113.305 90.526C113.706 90.526 114.065 90.4481 114.384 90.2923C114.711 90.1366 115.018 89.8955 115.308 89.5692L113.027 87.2773C112.078 87.6408 111.603 88.2156 111.603 89.0018C111.603 89.4394 111.759 89.8028 112.07 90.0921C112.389 90.3813 112.801 90.526 113.305 90.526ZM118.96 90.0476H128.083V90.8264H118.96V90.0476ZM123.021 87.6111H123.933V90.3035H123.021V87.6111ZM122.987 82.727H123.799V83.5058C123.799 83.9434 123.721 84.355 123.566 84.7407C123.417 85.119 123.21 85.475 122.943 85.8088C122.676 86.1351 122.368 86.4281 122.019 86.6877C121.678 86.9473 121.311 87.1661 120.918 87.3441C120.525 87.5221 120.124 87.6519 119.716 87.7335L119.316 86.9658C119.672 86.9065 120.024 86.8026 120.373 86.6543C120.729 86.4986 121.062 86.3131 121.374 86.098C121.685 85.8755 121.964 85.6308 122.208 85.3638C122.453 85.0893 122.642 84.7964 122.776 84.4848C122.917 84.1659 122.987 83.8396 122.987 83.5058V82.727ZM123.154 82.727H123.955V83.5058C123.955 83.847 124.026 84.1733 124.166 84.4848C124.307 84.7964 124.5 85.0893 124.745 85.3638C124.99 85.6308 125.268 85.8755 125.579 86.098C125.898 86.3205 126.232 86.506 126.581 86.6543C126.937 86.8026 127.293 86.9065 127.649 86.9658L127.248 87.7335C126.84 87.6519 126.44 87.5221 126.047 87.3441C125.654 87.1661 125.283 86.9473 124.934 86.6877C124.586 86.4281 124.278 86.1351 124.011 85.8088C123.744 85.475 123.532 85.1153 123.377 84.7296C123.228 84.3439 123.154 83.936 123.154 83.5058V82.727ZM133.277 87.4108H134.19V89.1464H133.277V87.4108ZM129.194 86.9213H138.284V87.6667H129.194V86.9213ZM130.04 82.3821H137.416V83.1387H130.04V82.3821ZM130.073 85.2303H137.383V85.9868H130.073V85.2303ZM131.553 82.7159H132.476V85.7309H131.553V82.7159ZM134.98 82.7159H135.903V85.7309H134.98V82.7159ZM130.307 88.846H137.171V91.9945H130.307V88.846ZM136.27 89.5803H131.208V91.238H136.27V89.5803ZM140.775 89.8584L139.529 92.8512H138.85L139.663 89.8584H140.775ZM144.6 87.2662H153.69V88.0227H144.6V87.2662ZM148.684 86.0313H149.596V87.6111H148.684V86.0313ZM148.684 82.0372H149.596V83.4391H148.684V82.0372ZM148.639 83.5281H149.451V83.6838C149.451 84.0992 149.344 84.47 149.129 84.7964C148.921 85.1227 148.628 85.4045 148.25 85.6419C147.879 85.8792 147.449 86.0721 146.959 86.2204C146.477 86.3613 145.962 86.4615 145.413 86.5208L145.123 85.8088C145.613 85.7643 146.069 85.6827 146.492 85.564C146.915 85.4453 147.285 85.2933 147.604 85.1079C147.931 84.9224 148.183 84.7111 148.361 84.4737C148.546 84.2364 148.639 83.9731 148.639 83.6838V83.5281ZM148.839 83.5281H149.64V83.6838C149.64 83.9731 149.729 84.2364 149.907 84.4737C150.093 84.7111 150.345 84.9224 150.664 85.1079C150.99 85.2933 151.365 85.4453 151.788 85.564C152.21 85.6827 152.666 85.7643 153.156 85.8088L152.878 86.5208C152.329 86.4615 151.81 86.3613 151.32 86.2204C150.838 86.0721 150.408 85.8792 150.03 85.6419C149.659 85.4045 149.366 85.1227 149.151 84.7964C148.943 84.47 148.839 84.0992 148.839 83.6838V83.5281ZM145.535 83.0385H152.767V83.7839H145.535V83.0385ZM149.14 88.7681C150.223 88.7681 151.064 88.9128 151.665 89.202C152.273 89.4839 152.577 89.8955 152.577 90.437C152.577 90.9784 152.273 91.3901 151.665 91.6719C151.064 91.9612 150.223 92.1058 149.14 92.1058C148.057 92.1058 147.211 91.9612 146.603 91.6719C145.995 91.3901 145.691 90.9784 145.691 90.437C145.691 89.8955 145.995 89.4839 146.603 89.202C147.211 88.9128 148.057 88.7681 149.14 88.7681ZM149.14 89.4691C148.339 89.4691 147.719 89.5543 147.282 89.7249C146.844 89.8881 146.625 90.1255 146.625 90.437C146.625 90.7485 146.844 90.9895 147.282 91.1601C147.719 91.3233 148.339 91.4049 149.14 91.4049C149.933 91.4049 150.549 91.3233 150.987 91.1601C151.432 90.9895 151.654 90.7485 151.654 90.437C151.654 90.1255 151.432 89.8881 150.987 89.7249C150.549 89.5543 149.933 89.4691 149.14 89.4691ZM157.912 85.2414C157.964 84.559 158.228 84.025 158.702 83.6393C159.177 83.2536 159.793 83.0608 160.549 83.0608C161.053 83.0608 161.487 83.1535 161.851 83.3389C162.222 83.5169 162.5 83.7617 162.685 84.0732C162.878 84.3847 162.974 84.737 162.974 85.1301C162.974 85.59 162.841 85.9868 162.574 86.3205C162.314 86.6543 161.973 86.8694 161.55 86.9658V87.0215C162.033 87.1401 162.414 87.3738 162.696 87.7224C162.978 88.071 163.119 88.5271 163.119 89.0908C163.119 89.5136 163.023 89.8955 162.83 90.2367C162.637 90.5705 162.348 90.8338 161.962 91.0266C161.576 91.2195 161.113 91.3159 160.571 91.3159C159.785 91.3159 159.14 91.1119 158.636 90.704C158.131 90.2886 157.849 89.7027 157.79 88.9462H158.769C158.821 89.3912 159.003 89.7546 159.314 90.0365C159.626 90.3183 160.041 90.4592 160.56 90.4592C161.079 90.4592 161.473 90.3257 161.74 90.0587C162.014 89.7843 162.151 89.432 162.151 89.0018C162.151 88.4455 161.966 88.045 161.595 87.8002C161.224 87.5555 160.664 87.4331 159.915 87.4331H159.659V86.5876H159.926C160.608 86.5801 161.124 86.4689 161.473 86.2538C161.821 86.0313 161.995 85.6901 161.995 85.2303C161.995 84.8372 161.866 84.5219 161.606 84.2846C161.354 84.0472 160.99 83.9286 160.516 83.9286C160.056 83.9286 159.685 84.0472 159.403 84.2846C159.121 84.5219 158.954 84.8409 158.903 85.2414H157.912ZM164.241 89.4691V88.7014L168.146 83.2944H169.359V88.5901H170.472V89.4691H169.359V91.2603H168.358V89.4691H164.241ZM168.402 84.3513L165.409 88.5901H168.402V84.3513ZM178.703 82.0706H179.627V89.5024H178.703V82.0706ZM176.523 85.1635H178.881V85.9312H176.523V85.1635ZM175.588 82.8383H176.567C176.567 83.7061 176.374 84.4997 175.989 85.2191C175.603 85.9312 175.062 86.5505 174.364 87.0771C173.667 87.6037 172.844 88.0265 171.895 88.3454L171.505 87.6C172.321 87.3255 173.037 86.9732 173.652 86.5431C174.268 86.1129 174.743 85.6159 175.076 85.0522C175.418 84.4886 175.588 83.8767 175.588 83.2165V82.8383ZM172.006 82.8383H176.189V83.6059H172.006V82.8383ZM173.263 91.149H179.883V91.9055H173.263V91.149ZM173.263 88.7459H174.198V91.5273H173.263V88.7459ZM181.562 93.3296V93.2295C182.326 92.4433 182.904 91.5273 183.297 90.4815C183.698 89.4357 183.898 88.338 183.898 87.1883C183.898 86.009 183.687 84.8742 183.264 83.7839C182.849 82.6862 182.226 81.748 181.395 80.9692V80.8691H182.452C183.231 81.5885 183.828 82.5045 184.243 83.6171C184.666 84.7222 184.877 85.9126 184.877 87.1883C184.877 88.4344 184.677 89.5951 184.276 90.6706C183.883 91.7461 183.331 92.6324 182.619 93.3296H181.562Z" fill="black"/>
<path d="M285.566 24C292.085 24 298.517 25.4996 304.364 28.3829C310.21 31.2662 315.315 35.4558 319.284 40.6276C323.252 45.7995 325.978 51.8149 327.25 58.2087C328.522 64.6024 328.305 71.203 326.618 77.4998C324.931 83.7967 321.818 89.621 317.52 94.5222C313.221 99.4234 307.853 103.27 301.83 105.765C295.808 108.26 289.292 109.335 282.787 108.909C276.282 108.483 269.962 106.566 264.316 103.306L270.266 93.0004C274.331 95.3472 278.881 96.7275 283.565 97.0345C288.249 97.3415 292.94 96.5669 297.277 94.7707C301.613 92.9745 305.478 90.2049 308.573 86.676C311.667 83.1471 313.909 78.9536 315.124 74.4199C316.339 69.8861 316.494 65.1337 315.578 60.5302C314.663 55.9268 312.7 51.5956 309.843 47.8719C306.986 44.1482 303.31 41.1316 299.1 39.0557C294.891 36.9797 290.26 35.9 285.566 35.9V24Z" fill="#3B82F6" stroke="#F3F4F5" stroke-width="2"/>
<path d="M244.515 55.5002C246.936 46.4633 252.272 38.4779 259.694 32.7825C267.116 27.0871 276.211 24 285.566 24V35.9C278.83 35.9 272.282 38.1227 266.938 42.2234C261.594 46.3241 257.753 52.0736 256.009 58.5801L244.515 55.5002Z" fill="#14B8A6" stroke="#F3F4F5" stroke-width="2"/>
<path d="M264.316 103.306C256.214 98.6282 249.882 91.4076 246.302 82.764C242.721 74.1205 242.093 64.5371 244.515 55.5002L256.009 58.5801C254.266 65.0867 254.718 71.9868 257.296 78.2101C259.873 84.4335 264.433 89.6323 270.266 93.0004L264.316 103.306Z" fill="#F59E0B" stroke="#F3F4F5" stroke-width="2"/>
</svg>
