<svg width="376" height="211" viewBox="0 0 376 211" fill="none" xmlns="http://www.w3.org/2000/svg">
<rect x="0.632812" y="0.190918" width="342" height="210" rx="16" fill="white"/>
<path d="M27.0234 22.1362V23.189H18.5059V18.7046H19.8047V22.1362H27.0234ZM17.084 25.9507V24.8843H28.2949V25.9507H23.2773V30.353H21.9922V25.9507H17.084ZM33.5723 20.2769C33.5654 21.8218 34.6729 23.3325 36.5254 23.9683L35.8555 24.98C34.4814 24.5083 33.4629 23.5239 32.9297 22.314C32.3965 23.6606 31.3232 24.7407 29.8672 25.2534L29.1973 24.228C31.0771 23.5854 32.2529 21.9517 32.2461 20.2905V19.9487H29.5938V18.896H36.1973V19.9487H33.5723V20.2769ZM31.0977 27.0991V26.0464H39.3965V30.353H38.0977V27.0991H31.0977ZM35.8281 22.2866V21.2202H38.0977V18.103H39.3965V25.4312H38.0977V22.2866H35.8281ZM54.627 23.7495V24.7886H50.9219V27.7827H55.9121V28.8491H44.7012V27.7827H49.6367V24.7886H46.0957V19.0464H54.5176V20.0991H47.3945V23.7495H54.627ZM67.3418 18.103V30.353H66.0977V23.9683H64.5801V29.7515H63.3496V18.3354H64.5801V22.9019H66.0977V18.103H67.3418ZM57.2109 27.1265V19.4839H61.9688V27.1265H57.2109ZM58.4414 26.0874H60.752V20.5093H58.4414V26.0874ZM82.8594 18.103V30.353H81.6152V23.9683H80.0977V29.7515H78.8672V18.3354H80.0977V22.9019H81.6152V18.103H82.8594ZM72.7285 27.1265V19.4839H77.4863V27.1265H72.7285ZM73.959 26.0874H76.2695V20.5093H73.959V26.0874ZM95.5742 23.4761V24.4468H90.6387V25.4722H94.1797V28.2339H87.043V29.2456H94.5215V30.23H85.7715V27.3315H92.8945V26.4155H85.7578V25.4722H89.3535V24.4468H84.4316V23.4761H95.5742ZM84.9785 22.0132C87.3232 21.8833 88.9775 21.1655 89.2441 20.1265H85.5391V19.1284H89.3535V18.0483H90.6387V19.1284H94.4668V20.1265H90.7412C91.001 21.1655 92.6553 21.8833 95.0273 22.0132L94.6309 22.9976C92.498 22.8403 90.7617 22.2183 89.9961 21.145C89.2305 22.2183 87.4941 22.8403 85.3477 22.9976L84.9785 22.0132ZM99.4297 18.855C101.05 18.8618 102.246 20.0649 102.246 21.7944C102.246 23.5171 101.05 24.6929 99.4297 24.6929C97.7959 24.6929 96.6201 23.5171 96.627 21.7944C96.6201 20.0649 97.7959 18.8618 99.4297 18.855ZM97.7891 21.7944C97.7822 22.8608 98.4795 23.606 99.4297 23.5991C100.373 23.606 101.057 22.8608 101.07 21.7944C101.057 20.7075 100.373 19.9761 99.4297 19.9761C98.4795 19.9761 97.7822 20.7075 97.7891 21.7944ZM98.6367 27.0854V26.0464H106.963V30.353H105.678V27.0854H98.6367ZM103.094 25.3354V18.3354H104.311V21.2065H105.732V18.1167H106.963V25.4175H105.732V22.2593H104.311V25.3354H103.094ZM21.2676 36.2925V46.1909H19.75V37.7964H19.6953L17.3301 39.3413V37.9058L19.791 36.2925H21.2676ZM24.125 46.1909L28.541 37.6597V37.5776H23.4414V36.2925H30.0996V37.6323L25.6973 46.1909H24.125ZM34.8438 46.3276C32.5537 46.3276 31.207 44.4819 31.207 41.2417C31.207 38.022 32.5674 36.1558 34.8438 36.1558C37.1133 36.1558 38.4736 38.022 38.4805 41.2417C38.4736 44.4819 37.1338 46.3276 34.8438 46.3276ZM32.7109 41.2417C32.7041 43.7095 33.5039 45.0288 34.8438 45.0288C36.1768 45.0288 36.9766 43.7095 36.9766 41.2417C36.9766 38.7808 36.1699 37.4341 34.8438 37.4272C33.5107 37.4341 32.7109 38.7808 32.7109 41.2417ZM42.3086 40.9956C40.9551 41.0093 40.2168 40.0044 40.2305 38.5347C40.2168 37.0854 40.9893 36.0806 42.3086 36.0874C43.6689 36.0806 44.3799 37.0854 44.3867 38.5347C44.3799 40.0112 43.6416 41.0093 42.3086 40.9956ZM41.3516 46.1909L48.1465 36.2925H49.3906L42.5957 46.1909H41.3516ZM41.3516 38.5347C41.3584 39.4438 41.6729 40.0317 42.3086 40.0386C42.9512 40.0317 43.252 39.4438 43.252 38.5347C43.252 37.646 42.9717 37.0376 42.3086 37.0444C41.6729 37.0581 41.3584 37.6528 41.3516 38.5347ZM46.4785 43.9351C46.4717 42.4722 47.2373 41.4673 48.5566 41.4741C49.9102 41.4673 50.6279 42.4722 50.6348 43.9351C50.6279 45.3979 49.8896 46.396 48.5566 46.396C47.21 46.396 46.4717 45.3911 46.4785 43.9351ZM47.5996 43.9351C47.6064 44.8306 47.9209 45.4253 48.5566 45.4253C49.1992 45.4253 49.5 44.8306 49.5 43.9351C49.5 43.0327 49.2197 42.4312 48.5566 42.4312C47.9277 42.4448 47.6064 43.0396 47.5996 43.9351ZM59.7812 37.0581C59.7744 38.6646 60.9092 40.1616 62.7344 40.7632L62.0371 41.7886C60.6973 41.3169 59.6924 40.3599 59.1592 39.1499C58.626 40.5239 57.5869 41.604 56.1582 42.1304L55.4609 41.0913C57.375 40.4146 58.4824 38.7808 58.4961 36.9487V35.7456H59.7812V37.0581ZM57.1152 45.0562C57.1152 43.6206 58.6807 42.7798 61.2305 42.7866C63.7461 42.7798 65.291 43.6206 65.291 45.0562C65.291 46.5054 63.7461 47.3325 61.2305 47.3257C58.6807 47.3325 57.1152 46.5054 57.1152 45.0562ZM58.4141 45.0562C58.4072 45.8628 59.46 46.3003 61.2305 46.314C62.9873 46.3003 64.0264 45.8628 64.0195 45.0562C64.0264 44.2769 62.9873 43.812 61.2305 43.812C59.46 43.812 58.4072 44.2769 58.4141 45.0562ZM63.8828 42.4995V35.103H65.1816V38.1792H66.959V39.2729H65.1816V42.4995H63.8828ZM73.9043 35.814C73.9111 37.2769 75.8662 38.6851 78.1973 38.9722L77.7188 39.9976C75.7637 39.7104 74.041 38.7466 73.248 37.4204C72.4688 38.7603 70.7461 39.7104 68.7773 39.9976L68.2715 38.9722C70.623 38.6851 72.5713 37.3042 72.5781 35.814V35.3081H73.9043V35.814ZM67.6562 41.9253V40.8862H78.8262V41.9253H67.6562ZM68.9824 45.1519C68.9824 43.7368 70.5684 42.9644 73.2344 42.9644C75.8662 42.9644 77.4521 43.7368 77.459 45.1519C77.4521 46.5532 75.8662 47.3462 73.2344 47.353C70.5684 47.3462 68.9824 46.5532 68.9824 45.1519ZM70.2949 45.1519C70.2881 45.9243 71.3613 46.3413 73.2344 46.3276C75.0801 46.3413 76.1602 45.9243 76.1602 45.1519C76.1602 44.3862 75.0801 43.9624 73.2344 43.9624C71.3613 43.9624 70.2881 44.3862 70.2949 45.1519Z" fill="black"/>
<rect x="286.633" y="16.1909" width="24" height="24" rx="12" fill="white"/>
<path d="M31.0558 191.791V190.961H32.9358V198.191H32.0158V191.791H31.0558ZM36.8089 193.661H37.6289V195.281H36.8089V193.661ZM40.9489 189.931H41.7789V195.251H40.9489V189.931ZM34.4489 193.941L34.3489 193.331C34.9289 193.331 35.5489 193.328 36.2089 193.321C36.8756 193.308 37.5522 193.288 38.2389 193.261C38.9256 193.228 39.5922 193.174 40.2389 193.101L40.2889 193.641C39.6289 193.734 38.9556 193.804 38.2689 193.851C37.5889 193.891 36.9222 193.918 36.2689 193.931C35.6222 193.938 35.0156 193.941 34.4489 193.941ZM35.7189 195.581H41.7789V197.461H36.5589V198.481H35.7489V196.901H40.9589V196.171H35.7189V195.581ZM35.7489 198.261H42.0789V198.871H35.7489V198.261ZM39.1489 194.231H41.2189V194.771H39.1489V194.231ZM37.2689 190.101C37.7156 190.101 38.1056 190.154 38.4389 190.261C38.7722 190.368 39.0322 190.524 39.2189 190.731C39.4056 190.938 39.4989 191.181 39.4989 191.461C39.4989 191.734 39.4056 191.974 39.2189 192.181C39.0322 192.381 38.7722 192.538 38.4389 192.651C38.1056 192.758 37.7156 192.811 37.2689 192.811C36.8222 192.811 36.4289 192.758 36.0889 192.651C35.7556 192.538 35.4956 192.381 35.3089 192.181C35.1289 191.974 35.0389 191.734 35.0389 191.461C35.0389 191.181 35.1289 190.938 35.3089 190.731C35.4956 190.524 35.7556 190.368 36.0889 190.261C36.4289 190.154 36.8222 190.101 37.2689 190.101ZM37.2689 190.671C36.8289 190.671 36.4756 190.741 36.2089 190.881C35.9489 191.021 35.8189 191.214 35.8189 191.461C35.8189 191.694 35.9489 191.884 36.2089 192.031C36.4756 192.171 36.8289 192.241 37.2689 192.241C37.7089 192.241 38.0589 192.171 38.3189 192.031C38.5856 191.884 38.7189 191.694 38.7189 191.461C38.7189 191.214 38.5856 191.021 38.3189 190.881C38.0589 190.741 37.7089 190.671 37.2689 190.671ZM64.9163 197.461C65.7629 196.781 66.4263 196.224 66.9062 195.791C67.3863 195.351 67.7896 194.894 68.1163 194.421C68.4496 193.941 68.6163 193.471 68.6163 193.011C68.6163 192.578 68.5096 192.238 68.2963 191.991C68.0896 191.738 67.7529 191.611 67.2863 191.611C66.8329 191.611 66.4796 191.754 66.2263 192.041C65.9796 192.321 65.8463 192.698 65.8263 193.171H64.9463C64.9729 192.424 65.1996 191.848 65.6263 191.441C66.0529 191.034 66.6029 190.831 67.2763 190.831C67.9629 190.831 68.5063 191.021 68.9063 191.401C69.3129 191.781 69.5163 192.304 69.5163 192.971C69.5163 193.524 69.3496 194.064 69.0163 194.591C68.6896 195.111 68.3163 195.571 67.8963 195.971C67.4763 196.364 66.9396 196.824 66.2863 197.351H69.7263V198.111H64.9163V197.461ZM73.0882 193.661H73.9082V195.281H73.0882V193.661ZM77.2282 189.931H78.0582V195.251H77.2282V189.931ZM70.7282 193.941L70.6282 193.331C71.2082 193.331 71.8282 193.328 72.4882 193.321C73.1549 193.308 73.8315 193.288 74.5182 193.261C75.2049 193.228 75.8715 193.174 76.5182 193.101L76.5682 193.641C75.9082 193.734 75.2349 193.804 74.5482 193.851C73.8682 193.891 73.2015 193.918 72.5482 193.931C71.9015 193.938 71.2949 193.941 70.7282 193.941ZM71.9982 195.581H78.0582V197.461H72.8382V198.481H72.0282V196.901H77.2382V196.171H71.9982V195.581ZM72.0282 198.261H78.3582V198.871H72.0282V198.261ZM75.4282 194.231H77.4982V194.771H75.4282V194.231ZM73.5482 190.101C73.9949 190.101 74.3849 190.154 74.7182 190.261C75.0515 190.368 75.3115 190.524 75.4982 190.731C75.6849 190.938 75.7782 191.181 75.7782 191.461C75.7782 191.734 75.6849 191.974 75.4982 192.181C75.3115 192.381 75.0515 192.538 74.7182 192.651C74.3849 192.758 73.9949 192.811 73.5482 192.811C73.1015 192.811 72.7082 192.758 72.3682 192.651C72.0349 192.538 71.7749 192.381 71.5882 192.181C71.4082 191.974 71.3182 191.734 71.3182 191.461C71.3182 191.181 71.4082 190.938 71.5882 190.731C71.7749 190.524 72.0349 190.368 72.3682 190.261C72.7082 190.154 73.1015 190.101 73.5482 190.101ZM73.5482 190.671C73.1082 190.671 72.7549 190.741 72.4882 190.881C72.2282 191.021 72.0982 191.214 72.0982 191.461C72.0982 191.694 72.2282 191.884 72.4882 192.031C72.7549 192.171 73.1082 192.241 73.5482 192.241C73.9882 192.241 74.3382 192.171 74.5982 192.031C74.8649 191.884 74.9982 191.694 74.9982 191.461C74.9982 191.214 74.8649 191.021 74.5982 190.881C74.3382 190.741 73.9882 190.671 73.5482 190.671ZM101.286 192.781C101.332 192.168 101.569 191.688 101.996 191.341C102.422 190.994 102.976 190.821 103.656 190.821C104.109 190.821 104.499 190.904 104.826 191.071C105.159 191.231 105.409 191.451 105.576 191.731C105.749 192.011 105.836 192.328 105.836 192.681C105.836 193.094 105.716 193.451 105.476 193.751C105.242 194.051 104.936 194.244 104.556 194.331V194.381C104.989 194.488 105.332 194.698 105.586 195.011C105.839 195.324 105.966 195.734 105.966 196.241C105.966 196.621 105.879 196.964 105.706 197.271C105.532 197.571 105.272 197.808 104.926 197.981C104.579 198.154 104.162 198.241 103.676 198.241C102.969 198.241 102.389 198.058 101.936 197.691C101.482 197.318 101.229 196.791 101.176 196.111H102.056C102.102 196.511 102.266 196.838 102.546 197.091C102.826 197.344 103.199 197.471 103.666 197.471C104.132 197.471 104.486 197.351 104.726 197.111C104.972 196.864 105.096 196.548 105.096 196.161C105.096 195.661 104.929 195.301 104.596 195.081C104.262 194.861 103.759 194.751 103.086 194.751H102.856V193.991H103.096C103.709 193.984 104.172 193.884 104.486 193.691C104.799 193.491 104.956 193.184 104.956 192.771C104.956 192.418 104.839 192.134 104.606 191.921C104.379 191.708 104.052 191.601 103.626 191.601C103.212 191.601 102.879 191.708 102.626 191.921C102.372 192.134 102.222 192.421 102.176 192.781H101.286ZM109.504 193.661H110.324V195.281H109.504V193.661ZM113.644 189.931H114.474V195.251H113.644V189.931ZM107.144 193.941L107.044 193.331C107.624 193.331 108.244 193.328 108.904 193.321C109.571 193.308 110.248 193.288 110.934 193.261C111.621 193.228 112.288 193.174 112.934 193.101L112.984 193.641C112.324 193.734 111.651 193.804 110.964 193.851C110.284 193.891 109.618 193.918 108.964 193.931C108.318 193.938 107.711 193.941 107.144 193.941ZM108.414 195.581H114.474V197.461H109.254V198.481H108.444V196.901H113.654V196.171H108.414V195.581ZM108.444 198.261H114.774V198.871H108.444V198.261ZM111.844 194.231H113.914V194.771H111.844V194.231ZM109.964 190.101C110.411 190.101 110.801 190.154 111.134 190.261C111.468 190.368 111.728 190.524 111.914 190.731C112.101 190.938 112.194 191.181 112.194 191.461C112.194 191.734 112.101 191.974 111.914 192.181C111.728 192.381 111.468 192.538 111.134 192.651C110.801 192.758 110.411 192.811 109.964 192.811C109.518 192.811 109.124 192.758 108.784 192.651C108.451 192.538 108.191 192.381 108.004 192.181C107.824 191.974 107.734 191.734 107.734 191.461C107.734 191.181 107.824 190.938 108.004 190.731C108.191 190.524 108.451 190.368 108.784 190.261C109.124 190.154 109.518 190.101 109.964 190.101ZM109.964 190.671C109.524 190.671 109.171 190.741 108.904 190.881C108.644 191.021 108.514 191.214 108.514 191.461C108.514 191.694 108.644 191.884 108.904 192.031C109.171 192.171 109.524 192.241 109.964 192.241C110.404 192.241 110.754 192.171 111.014 192.031C111.281 191.884 111.414 191.694 111.414 191.461C111.414 191.214 111.281 191.021 111.014 190.881C110.754 190.741 110.404 190.671 109.964 190.671ZM137.502 196.581V195.891L141.012 191.031H142.102V195.791H143.102V196.581H142.102V198.191H141.202V196.581H137.502ZM141.242 191.981L138.552 195.791H141.242V191.981ZM146.321 193.661H147.141V195.281H146.321V193.661ZM150.461 189.931H151.291V195.251H150.461V189.931ZM143.961 193.941L143.861 193.331C144.441 193.331 145.061 193.328 145.721 193.321C146.387 193.308 147.064 193.288 147.751 193.261C148.437 193.228 149.104 193.174 149.751 193.101L149.801 193.641C149.141 193.734 148.467 193.804 147.781 193.851C147.101 193.891 146.434 193.918 145.781 193.931C145.134 193.938 144.527 193.941 143.961 193.941ZM145.231 195.581H151.291V197.461H146.071V198.481H145.261V196.901H150.471V196.171H145.231V195.581ZM145.261 198.261H151.591V198.871H145.261V198.261ZM148.661 194.231H150.731V194.771H148.661V194.231ZM146.781 190.101C147.227 190.101 147.617 190.154 147.951 190.261C148.284 190.368 148.544 190.524 148.731 190.731C148.917 190.938 149.011 191.181 149.011 191.461C149.011 191.734 148.917 191.974 148.731 192.181C148.544 192.381 148.284 192.538 147.951 192.651C147.617 192.758 147.227 192.811 146.781 192.811C146.334 192.811 145.941 192.758 145.601 192.651C145.267 192.538 145.007 192.381 144.821 192.181C144.641 191.974 144.551 191.734 144.551 191.461C144.551 191.181 144.641 190.938 144.821 190.731C145.007 190.524 145.267 190.368 145.601 190.261C145.941 190.154 146.334 190.101 146.781 190.101ZM146.781 190.671C146.341 190.671 145.987 190.741 145.721 190.881C145.461 191.021 145.331 191.214 145.331 191.461C145.331 191.694 145.461 191.884 145.721 192.031C145.987 192.171 146.341 192.241 146.781 192.241C147.221 192.241 147.571 192.171 147.831 192.031C148.097 191.884 148.231 191.694 148.231 191.461C148.231 191.214 148.097 191.021 147.831 190.881C147.571 190.741 147.221 190.671 146.781 190.671Z" fill="black"/>
<path d="M210.283 19.103V31.353H208.998V25.0229H206.25V23.9565H208.998V19.103H210.283ZM200.057 28.0581C203.304 26.4722 204.746 24.2642 204.972 21.4546H200.604V20.4155H206.291C206.277 23.9634 204.896 27.0259 200.74 29.0835L200.057 28.0581ZM217.188 20.3882V24.8179H213.824V27.4019C215.15 27.395 216.408 27.3335 217.885 27.1011L217.994 28.1401C216.292 28.4409 214.925 28.4819 213.4 28.4956H212.566V23.7515H215.93V21.4546H212.553V20.3882H217.188ZM218.678 30.7241V19.3491H219.867V23.8745H221.453V19.103H222.697V31.353H221.453V24.9272H219.867V30.7241H218.678ZM234.51 19.103V31.3804H233.211V25.0093H230.682V23.9565H233.211V19.103H234.51ZM224.283 28.0034C226.136 27.1489 227.353 25.0571 227.346 23.0405V22.2339H224.625V21.1948H227.359V19.3491H228.658V21.1948H231.311V22.2339H228.631V23.0405C228.631 24.9751 229.882 26.9644 231.762 27.7983L231.037 28.7964C229.636 28.1812 228.556 26.896 228.009 25.3579C227.476 26.9849 226.402 28.3521 224.994 29.0015L224.283 28.0034ZM250.971 24.8726V25.9253H239.801V24.8726H250.971ZM240.389 23.2046C242.61 22.9653 244.367 21.9673 244.511 20.771H240.826V19.7046H249.973V20.771H246.247C246.397 21.9604 248.127 22.9653 250.396 23.2046L249.932 24.23C247.806 23.9839 246.049 23.0884 245.386 21.7964C244.709 23.0884 242.966 23.9839 240.84 24.23L240.389 23.2046ZM241.127 29.1108C241.127 27.689 242.72 26.8687 245.379 26.8687C248.018 26.8687 249.597 27.689 249.604 29.1108C249.597 30.5327 248.018 31.3325 245.379 31.3257C242.72 31.3325 241.127 30.5327 241.127 29.1108ZM242.439 29.1108C242.433 29.8833 243.506 30.3071 245.379 30.3003C247.225 30.3071 248.305 29.8833 248.305 29.1108C248.305 28.3179 247.225 27.894 245.379 27.8804C243.506 27.894 242.433 28.3179 242.439 29.1108ZM261.443 19.103V23.9839H263.344V25.064H261.443V31.3394H260.145V19.103H261.443ZM251.914 28.0718C254.983 26.5405 256.651 24.3257 256.918 21.4683H252.529V20.3882H258.244C258.23 23.9292 256.672 27.0942 252.639 29.0835L251.914 28.0718ZM269.578 19.2397C272.34 19.2329 273.946 19.9917 273.953 21.3452C273.946 22.7192 272.34 23.4644 269.578 23.4644C266.816 23.4644 265.196 22.7192 265.203 21.3452C265.196 19.9917 266.816 19.2329 269.578 19.2397ZM264 25.1733V24.1343H275.17V25.1733H272.162V26.2671H273.762V29.1382H266.625V30.2319H274.104V31.23H265.354V28.1948H272.477V27.2378H265.34V26.2671H266.967V25.1733H264ZM266.557 21.3452C266.55 22.104 267.63 22.4868 269.578 22.4937C271.54 22.4868 272.62 22.104 272.613 21.3452C272.62 20.6274 271.54 20.2173 269.578 20.2104C267.63 20.2173 266.55 20.6274 266.557 21.3452ZM268.252 26.2671H270.863V25.1733H268.252V26.2671ZM200.508 47.1909V46.0972L203.939 42.6382C205.026 41.5103 205.566 40.8813 205.566 40.0132C205.566 39.0356 204.773 38.4136 203.734 38.4136C202.634 38.4136 201.937 39.1108 201.93 40.1636H200.508C200.494 38.3521 201.875 37.1558 203.762 37.1558C205.669 37.1558 206.988 38.3657 207.002 39.9722C206.988 41.0796 206.469 41.9614 204.609 43.7866L202.6 45.8237V45.9058H207.166V47.1909H200.508ZM212.197 47.3276C210.324 47.3276 208.916 46.186 208.848 44.6069H210.311C210.393 45.4478 211.199 46.063 212.197 46.0698C213.4 46.063 214.262 45.1948 214.262 44.019C214.262 42.8159 213.373 41.9409 212.129 41.9272C211.336 41.9272 210.728 42.1938 210.393 42.8022H208.971L209.613 37.2925H215.219V38.5776H210.857L210.529 41.353H210.625C211.035 40.9565 211.732 40.6899 212.484 40.6831C214.351 40.6899 215.725 42.0708 215.725 43.978C215.725 45.9263 214.262 47.3276 212.197 47.3276ZM220.77 47.3276C218.479 47.3276 217.133 45.4819 217.133 42.2417C217.133 39.022 218.493 37.1558 220.77 37.1558C223.039 37.1558 224.399 39.022 224.406 42.2417C224.399 45.4819 223.06 47.3276 220.77 47.3276ZM218.637 42.2417C218.63 44.7095 219.43 46.0288 220.77 46.0288C222.103 46.0288 222.902 44.7095 222.902 42.2417C222.902 39.7808 222.096 38.4341 220.77 38.4272C219.437 38.4341 218.637 39.7808 218.637 42.2417ZM228.234 41.9956C226.881 42.0093 226.143 41.0044 226.156 39.5347C226.143 38.0854 226.915 37.0806 228.234 37.0874C229.595 37.0806 230.306 38.0854 230.312 39.5347C230.306 41.0112 229.567 42.0093 228.234 41.9956ZM227.277 47.1909L234.072 37.2925H235.316L228.521 47.1909H227.277ZM227.277 39.5347C227.284 40.4438 227.599 41.0317 228.234 41.0386C228.877 41.0317 229.178 40.4438 229.178 39.5347C229.178 38.646 228.897 38.0376 228.234 38.0444C227.599 38.0581 227.284 38.6528 227.277 39.5347ZM232.404 44.9351C232.397 43.4722 233.163 42.4673 234.482 42.4741C235.836 42.4673 236.554 43.4722 236.561 44.9351C236.554 46.3979 235.815 47.396 234.482 47.396C233.136 47.396 232.397 46.3911 232.404 44.9351ZM233.525 44.9351C233.532 45.8306 233.847 46.4253 234.482 46.4253C235.125 46.4253 235.426 45.8306 235.426 44.9351C235.426 44.0327 235.146 43.4312 234.482 43.4312C233.854 43.4448 233.532 44.0396 233.525 44.9351ZM245.707 38.0581C245.7 39.6646 246.835 41.1616 248.66 41.7632L247.963 42.7886C246.623 42.3169 245.618 41.3599 245.085 40.1499C244.552 41.5239 243.513 42.604 242.084 43.1304L241.387 42.0913C243.301 41.4146 244.408 39.7808 244.422 37.9487V36.7456H245.707V38.0581ZM243.041 46.0562C243.041 44.6206 244.606 43.7798 247.156 43.7866C249.672 43.7798 251.217 44.6206 251.217 46.0562C251.217 47.5054 249.672 48.3325 247.156 48.3257C244.606 48.3325 243.041 47.5054 243.041 46.0562ZM244.34 46.0562C244.333 46.8628 245.386 47.3003 247.156 47.314C248.913 47.3003 249.952 46.8628 249.945 46.0562C249.952 45.2769 248.913 44.812 247.156 44.812C245.386 44.812 244.333 45.2769 244.34 46.0562ZM249.809 43.4995V36.103H251.107V39.1792H252.885V40.2729H251.107V43.4995H249.809ZM259.83 36.814C259.837 38.2769 261.792 39.6851 264.123 39.9722L263.645 40.9976C261.689 40.7104 259.967 39.7466 259.174 38.4204C258.395 39.7603 256.672 40.7104 254.703 40.9976L254.197 39.9722C256.549 39.6851 258.497 38.3042 258.504 36.814V36.3081H259.83V36.814ZM253.582 42.9253V41.8862H264.752V42.9253H253.582ZM254.908 46.1519C254.908 44.7368 256.494 43.9644 259.16 43.9644C261.792 43.9644 263.378 44.7368 263.385 46.1519C263.378 47.5532 261.792 48.3462 259.16 48.353C256.494 48.3462 254.908 47.5532 254.908 46.1519ZM256.221 46.1519C256.214 46.9243 257.287 47.3413 259.16 47.3276C261.006 47.3413 262.086 46.9243 262.086 46.1519C262.086 45.3862 261.006 44.9624 259.16 44.9624C257.287 44.9624 256.214 45.3862 256.221 46.1519Z" fill="black"/>
<path d="M214.056 192.791V191.961H215.936V199.191H215.016V192.791H214.056ZM219.809 194.661H220.629V196.281H219.809V194.661ZM223.949 190.931H224.779V196.251H223.949V190.931ZM217.449 194.941L217.349 194.331C217.929 194.331 218.549 194.328 219.209 194.321C219.876 194.308 220.552 194.288 221.239 194.261C221.926 194.228 222.592 194.174 223.239 194.101L223.289 194.641C222.629 194.734 221.956 194.804 221.269 194.851C220.589 194.891 219.922 194.918 219.269 194.931C218.622 194.938 218.016 194.941 217.449 194.941ZM218.719 196.581H224.779V198.461H219.559V199.481H218.749V197.901H223.959V197.171H218.719V196.581ZM218.749 199.261H225.079V199.871H218.749V199.261ZM222.149 195.231H224.219V195.771H222.149V195.231ZM220.269 191.101C220.716 191.101 221.106 191.154 221.439 191.261C221.772 191.368 222.032 191.524 222.219 191.731C222.406 191.938 222.499 192.181 222.499 192.461C222.499 192.734 222.406 192.974 222.219 193.181C222.032 193.381 221.772 193.538 221.439 193.651C221.106 193.758 220.716 193.811 220.269 193.811C219.822 193.811 219.429 193.758 219.089 193.651C218.756 193.538 218.496 193.381 218.309 193.181C218.129 192.974 218.039 192.734 218.039 192.461C218.039 192.181 218.129 191.938 218.309 191.731C218.496 191.524 218.756 191.368 219.089 191.261C219.429 191.154 219.822 191.101 220.269 191.101ZM220.269 191.671C219.829 191.671 219.476 191.741 219.209 191.881C218.949 192.021 218.819 192.214 218.819 192.461C218.819 192.694 218.949 192.884 219.209 193.031C219.476 193.171 219.829 193.241 220.269 193.241C220.709 193.241 221.059 193.171 221.319 193.031C221.586 192.884 221.719 192.694 221.719 192.461C221.719 192.214 221.586 192.021 221.319 191.881C221.059 191.741 220.709 191.671 220.269 191.671ZM247.916 198.461C248.763 197.781 249.426 197.224 249.906 196.791C250.386 196.351 250.79 195.894 251.116 195.421C251.45 194.941 251.616 194.471 251.616 194.011C251.616 193.578 251.51 193.238 251.296 192.991C251.09 192.738 250.753 192.611 250.286 192.611C249.833 192.611 249.48 192.754 249.226 193.041C248.98 193.321 248.846 193.698 248.826 194.171H247.946C247.973 193.424 248.2 192.848 248.626 192.441C249.053 192.034 249.603 191.831 250.276 191.831C250.963 191.831 251.506 192.021 251.906 192.401C252.313 192.781 252.516 193.304 252.516 193.971C252.516 194.524 252.35 195.064 252.016 195.591C251.69 196.111 251.316 196.571 250.896 196.971C250.476 197.364 249.94 197.824 249.286 198.351H252.726V199.111H247.916V198.461ZM256.088 194.661H256.908V196.281H256.088V194.661ZM260.228 190.931H261.058V196.251H260.228V190.931ZM253.728 194.941L253.628 194.331C254.208 194.331 254.828 194.328 255.488 194.321C256.155 194.308 256.832 194.288 257.518 194.261C258.205 194.228 258.872 194.174 259.518 194.101L259.568 194.641C258.908 194.734 258.235 194.804 257.548 194.851C256.868 194.891 256.202 194.918 255.548 194.931C254.902 194.938 254.295 194.941 253.728 194.941ZM254.998 196.581H261.058V198.461H255.838V199.481H255.028V197.901H260.238V197.171H254.998V196.581ZM255.028 199.261H261.358V199.871H255.028V199.261ZM258.428 195.231H260.498V195.771H258.428V195.231ZM256.548 191.101C256.995 191.101 257.385 191.154 257.718 191.261C258.052 191.368 258.312 191.524 258.498 191.731C258.685 191.938 258.778 192.181 258.778 192.461C258.778 192.734 258.685 192.974 258.498 193.181C258.312 193.381 258.052 193.538 257.718 193.651C257.385 193.758 256.995 193.811 256.548 193.811C256.102 193.811 255.708 193.758 255.368 193.651C255.035 193.538 254.775 193.381 254.588 193.181C254.408 192.974 254.318 192.734 254.318 192.461C254.318 192.181 254.408 191.938 254.588 191.731C254.775 191.524 255.035 191.368 255.368 191.261C255.708 191.154 256.102 191.101 256.548 191.101ZM256.548 191.671C256.108 191.671 255.755 191.741 255.488 191.881C255.228 192.021 255.098 192.214 255.098 192.461C255.098 192.694 255.228 192.884 255.488 193.031C255.755 193.171 256.108 193.241 256.548 193.241C256.988 193.241 257.338 193.171 257.598 193.031C257.865 192.884 257.998 192.694 257.998 192.461C257.998 192.214 257.865 192.021 257.598 191.881C257.338 191.741 256.988 191.671 256.548 191.671ZM284.286 193.781C284.332 193.168 284.569 192.688 284.996 192.341C285.422 191.994 285.976 191.821 286.656 191.821C287.109 191.821 287.499 191.904 287.826 192.071C288.159 192.231 288.409 192.451 288.576 192.731C288.749 193.011 288.836 193.328 288.836 193.681C288.836 194.094 288.716 194.451 288.476 194.751C288.242 195.051 287.936 195.244 287.556 195.331V195.381C287.989 195.488 288.332 195.698 288.586 196.011C288.839 196.324 288.966 196.734 288.966 197.241C288.966 197.621 288.879 197.964 288.706 198.271C288.532 198.571 288.272 198.808 287.926 198.981C287.579 199.154 287.162 199.241 286.676 199.241C285.969 199.241 285.389 199.058 284.936 198.691C284.482 198.318 284.229 197.791 284.176 197.111H285.056C285.102 197.511 285.266 197.838 285.546 198.091C285.826 198.344 286.199 198.471 286.666 198.471C287.132 198.471 287.486 198.351 287.726 198.111C287.972 197.864 288.096 197.548 288.096 197.161C288.096 196.661 287.929 196.301 287.596 196.081C287.262 195.861 286.759 195.751 286.086 195.751H285.856V194.991H286.096C286.709 194.984 287.172 194.884 287.486 194.691C287.799 194.491 287.956 194.184 287.956 193.771C287.956 193.418 287.839 193.134 287.606 192.921C287.379 192.708 287.052 192.601 286.626 192.601C286.212 192.601 285.879 192.708 285.626 192.921C285.372 193.134 285.222 193.421 285.176 193.781H284.286ZM292.504 194.661H293.324V196.281H292.504V194.661ZM296.644 190.931H297.474V196.251H296.644V190.931ZM290.144 194.941L290.044 194.331C290.624 194.331 291.244 194.328 291.904 194.321C292.571 194.308 293.248 194.288 293.934 194.261C294.621 194.228 295.288 194.174 295.934 194.101L295.984 194.641C295.324 194.734 294.651 194.804 293.964 194.851C293.284 194.891 292.618 194.918 291.964 194.931C291.318 194.938 290.711 194.941 290.144 194.941ZM291.414 196.581H297.474V198.461H292.254V199.481H291.444V197.901H296.654V197.171H291.414V196.581ZM291.444 199.261H297.774V199.871H291.444V199.261ZM294.844 195.231H296.914V195.771H294.844V195.231ZM292.964 191.101C293.411 191.101 293.801 191.154 294.134 191.261C294.468 191.368 294.728 191.524 294.914 191.731C295.101 191.938 295.194 192.181 295.194 192.461C295.194 192.734 295.101 192.974 294.914 193.181C294.728 193.381 294.468 193.538 294.134 193.651C293.801 193.758 293.411 193.811 292.964 193.811C292.518 193.811 292.124 193.758 291.784 193.651C291.451 193.538 291.191 193.381 291.004 193.181C290.824 192.974 290.734 192.734 290.734 192.461C290.734 192.181 290.824 191.938 291.004 191.731C291.191 191.524 291.451 191.368 291.784 191.261C292.124 191.154 292.518 191.101 292.964 191.101ZM292.964 191.671C292.524 191.671 292.171 191.741 291.904 191.881C291.644 192.021 291.514 192.214 291.514 192.461C291.514 192.694 291.644 192.884 291.904 193.031C292.171 193.171 292.524 193.241 292.964 193.241C293.404 193.241 293.754 193.171 294.014 193.031C294.281 192.884 294.414 192.694 294.414 192.461C294.414 192.214 294.281 192.021 294.014 191.881C293.754 191.741 293.404 191.671 292.964 191.671ZM320.502 197.581V196.891L324.012 192.031H325.102V196.791H326.102V197.581H325.102V199.191H324.202V197.581H320.502ZM324.242 192.981L321.552 196.791H324.242V192.981ZM329.321 194.661H330.141V196.281H329.321V194.661ZM333.461 190.931H334.291V196.251H333.461V190.931ZM326.961 194.941L326.861 194.331C327.441 194.331 328.061 194.328 328.721 194.321C329.387 194.308 330.064 194.288 330.751 194.261C331.437 194.228 332.104 194.174 332.751 194.101L332.801 194.641C332.141 194.734 331.467 194.804 330.781 194.851C330.101 194.891 329.434 194.918 328.781 194.931C328.134 194.938 327.527 194.941 326.961 194.941ZM328.231 196.581H334.291V198.461H329.071V199.481H328.261V197.901H333.471V197.171H328.231V196.581ZM328.261 199.261H334.591V199.871H328.261V199.261ZM331.661 195.231H333.731V195.771H331.661V195.231ZM329.781 191.101C330.227 191.101 330.617 191.154 330.951 191.261C331.284 191.368 331.544 191.524 331.731 191.731C331.917 191.938 332.011 192.181 332.011 192.461C332.011 192.734 331.917 192.974 331.731 193.181C331.544 193.381 331.284 193.538 330.951 193.651C330.617 193.758 330.227 193.811 329.781 193.811C329.334 193.811 328.941 193.758 328.601 193.651C328.267 193.538 328.007 193.381 327.821 193.181C327.641 192.974 327.551 192.734 327.551 192.461C327.551 192.181 327.641 191.938 327.821 191.731C328.007 191.524 328.267 191.368 328.601 191.261C328.941 191.154 329.334 191.101 329.781 191.101ZM329.781 191.671C329.341 191.671 328.987 191.741 328.721 191.881C328.461 192.021 328.331 192.214 328.331 192.461C328.331 192.694 328.461 192.884 328.721 193.031C328.987 193.171 329.341 193.241 329.781 193.241C330.221 193.241 330.571 193.171 330.831 193.031C331.097 192.884 331.231 192.694 331.231 192.461C331.231 192.214 331.097 192.021 330.831 191.881C330.571 191.741 330.221 191.671 329.781 191.671Z" fill="black"/>
<path d="M28.5864 147.325V155.191H27.5977V148.346H27.5542L25.642 149.617V148.629L27.5977 147.325H28.5864ZM33.2582 155.3C31.5144 155.3 30.504 153.833 30.5094 151.258C30.504 148.705 31.5253 147.216 33.2582 147.216C34.9857 147.216 36.007 148.705 36.007 151.258C36.007 153.833 35.002 155.3 33.2582 155.3ZM31.4547 151.258C31.4601 153.295 32.1174 154.43 33.2582 154.43C34.3936 154.43 35.0563 153.295 35.0509 151.258C35.0563 149.221 34.3881 148.069 33.2582 148.064C32.1283 148.069 31.4601 149.221 31.4547 151.258ZM39.8857 155.3C38.1419 155.3 37.1315 153.833 37.1369 151.258C37.1315 148.705 38.1528 147.216 39.8857 147.216C41.6132 147.216 42.6345 148.705 42.6345 151.258C42.6345 153.833 41.6295 155.3 39.8857 155.3ZM38.0821 151.258C38.0876 153.295 38.7449 154.43 39.8857 154.43C41.021 154.43 41.6838 153.295 41.6784 151.258C41.6838 149.221 41.0156 148.069 39.8857 148.064C38.7557 148.069 38.0876 149.221 38.0821 151.258Z" fill="black"/>
<path d="M213.799 144.191L213.788 143.474L216.472 140.649C217.401 139.66 217.846 139.128 217.852 138.4C217.846 137.591 217.173 137.069 216.287 137.064C215.347 137.069 214.761 137.661 214.755 138.541H213.832C213.821 137.151 214.896 136.216 216.32 136.216C217.748 136.216 218.759 137.178 218.764 138.4C218.759 139.28 218.351 139.965 216.961 141.399L215.157 143.257V143.322H218.906V144.191H213.799ZM227.663 135.89V136.564C227.657 137.297 227.657 138.145 227.402 139.291L226.565 139.193C226.815 138.074 226.815 137.281 226.815 136.575H221.035V135.89H227.663ZM219.992 140.638V139.954H223.632V137.998H224.468V139.954H228.782V140.638H219.992ZM220.622 144.365C222.371 144.104 223.909 143.137 223.914 141.855V141.41H224.772V141.855C224.778 143.137 226.315 144.104 228.075 144.365L227.749 145.028C226.277 144.788 224.93 144.093 224.343 143.039C223.757 144.093 222.409 144.788 220.937 145.028L220.622 144.365Z" fill="black"/>
<path d="M251.347 130.3C249.782 130.3 248.658 129.463 248.609 128.214H249.598C249.652 128.963 250.396 129.43 251.336 129.43C252.374 129.43 253.123 128.871 253.129 128.051C253.123 127.192 252.439 126.589 251.217 126.584H250.576V125.726H251.217C252.173 125.726 252.841 125.188 252.835 124.378C252.841 123.591 252.265 123.069 251.369 123.064C250.527 123.069 249.761 123.531 249.717 124.302H248.772C248.821 123.053 249.983 122.216 251.38 122.216C252.879 122.216 253.791 123.199 253.781 124.324C253.791 125.22 253.27 125.872 252.444 126.106V126.16C253.471 126.318 254.09 127.051 254.085 128.051C254.09 129.343 252.917 130.3 251.347 130.3ZM262.831 121.89V122.564C262.825 123.297 262.825 124.145 262.57 125.291L261.734 125.193C261.983 124.074 261.983 123.281 261.983 122.575H256.203V121.89H262.831ZM255.16 126.638V125.954H258.8V123.998H259.637V125.954H263.95V126.638H255.16ZM255.791 130.365C257.54 130.104 259.077 129.137 259.083 127.855V127.41H259.941V127.855C259.946 129.137 261.484 130.104 263.244 130.365L262.918 131.028C261.446 130.788 260.098 130.093 259.512 129.039C258.925 130.093 257.578 130.788 256.106 131.028L255.791 130.365Z" fill="black"/>
<path d="M66.4556 129.325V137.191H65.4669V130.346H65.4234L63.5112 131.617V130.629L65.4669 129.325H66.4556ZM71.3338 129.325V137.191H70.3451V130.346H70.3017L68.3895 131.617V130.629L70.3451 129.325H71.3338ZM75.9948 137.3C74.5769 137.3 73.5013 136.425 73.4416 135.214H74.3868C74.4574 135.914 75.1419 136.436 75.9948 136.441C77.0161 136.436 77.7549 135.692 77.7549 134.703C77.7549 133.682 76.9889 132.927 75.9296 132.921C75.2668 132.91 74.7508 133.117 74.4628 133.627H73.5176L74.0717 129.325H78.3307V130.194H74.8866L74.5932 132.497H74.6693C75.0224 132.226 75.5493 132.041 76.1034 132.041C77.6028 132.041 78.7055 133.149 78.711 134.681C78.7055 136.202 77.5647 137.3 75.9948 137.3Z" fill="black"/>
<path d="M97.1356 89.8249V97.6909H96.1469V90.8461H96.1035L94.1913 92.1173V91.1286L96.1469 89.8249H97.1356ZM101.797 97.7996C100.379 97.7996 99.3031 96.925 99.2434 95.7135H100.189C100.259 96.4143 100.944 96.9358 101.797 96.9413C102.818 96.9358 103.557 96.1916 103.557 95.2029C103.557 94.1816 102.791 93.4265 101.731 93.4211C101.069 93.4102 100.553 93.6167 100.265 94.1273H99.3194L99.8735 89.8249H104.133V90.694H100.688L100.395 92.9974H100.471C100.824 92.7257 101.351 92.541 101.905 92.541C103.405 92.541 104.507 93.6492 104.513 95.1812C104.507 96.7022 103.367 97.7996 101.797 97.7996ZM108.446 97.7996C106.702 97.7996 105.692 96.3328 105.697 93.7579C105.692 91.2047 106.713 89.7162 108.446 89.7162C110.173 89.7162 111.195 91.2047 111.195 93.7579C111.195 96.3328 110.19 97.7996 108.446 97.7996ZM106.642 93.7579C106.648 95.795 107.305 96.9304 108.446 96.9304C109.581 96.9304 110.244 95.795 110.238 93.7579C110.244 91.7208 109.576 90.5691 108.446 90.5637C107.316 90.5691 106.648 91.7208 106.642 93.7579Z" fill="black"/>
<path d="M120.685 63.5854V74.1909H119.352V64.9624H119.293L116.715 66.6763V65.3433L119.352 63.5854H120.685ZM123.849 74.1909L128.712 64.8306V64.7573H123.102V63.5854H130.074V64.8159L125.226 74.1909H123.849ZM135.025 74.3374C132.674 74.3374 131.312 72.3599 131.319 68.8882C131.312 65.4458 132.689 63.439 135.025 63.439C137.354 63.439 138.731 65.4458 138.731 68.8882C138.731 72.3599 137.376 74.3374 135.025 74.3374ZM132.594 68.8882C132.601 71.6348 133.487 73.1655 135.025 73.1655C136.556 73.1655 137.45 71.6348 137.442 68.8882C137.45 66.1416 136.549 64.5889 135.025 64.5815C133.502 64.5889 132.601 66.1416 132.594 68.8882ZM144.703 66.3813V70.7749H140.288V66.3813H144.703ZM141.115 70.0981H143.887V67.0688H141.115V70.0981ZM141.373 74.8569V71.8491H142.2V74.1479H147.786V74.8569H141.373ZM146.508 72.5151V65.5112H147.346V68.4224H148.785V69.1313H147.346V72.5151H146.508ZM157.261 65.522V72.7729H156.412V71.7847H154.436V71.1724H156.412V65.522H157.261ZM149.333 69.9478C151.111 69.937 153.506 69.9209 155.553 69.6685L155.606 70.2808C154.758 70.415 153.861 70.501 152.985 70.5547V72.4399H152.137V70.5977C151.17 70.6353 150.251 70.6353 149.451 70.6353L149.333 69.9478ZM150.106 67.5737C150.101 66.5693 151.057 65.9087 152.47 65.9087C153.872 65.9087 154.828 66.5693 154.833 67.5737C154.828 68.5942 153.872 69.228 152.47 69.228C151.057 69.228 150.101 68.5942 150.106 67.5737ZM150.708 74.8569V72.064H151.557V74.1479H157.497V74.8569H150.708ZM150.912 67.5737C150.901 68.1968 151.535 68.5996 152.47 68.605C153.377 68.5996 154.022 68.1968 154.027 67.5737C154.022 66.9614 153.377 66.5425 152.47 66.5532C151.535 66.5425 150.901 66.9614 150.912 67.5737Z" fill="black"/>
<path d="M95.1328 135.691L95.5533 136.598L95.7265 136.518L95.858 136.379L95.1328 135.691ZM142.765 86.5479C142.751 85.9958 142.292 85.5599 141.74 85.5742L132.743 85.8076C132.191 85.8219 131.755 86.2811 131.769 86.8332C131.783 87.3853 132.242 87.8213 132.795 87.8069L140.792 87.5995L140.999 95.5968C141.014 96.1489 141.473 96.5848 142.025 96.5705C142.577 96.5562 143.013 96.097 142.999 95.5449L142.765 86.5479ZM34.0533 165.098L95.5533 136.598L94.7124 134.784L33.2124 163.284L34.0533 165.098ZM95.858 136.379L142.491 87.2624L141.04 85.8853L94.4076 135.002L95.858 136.379Z" fill="#FFA100"/>
<path d="M207.633 164.691C207.633 157.787 213.229 152.191 220.133 152.191V152.191C227.036 152.191 232.633 157.787 232.633 164.691V167.691C232.633 174.594 227.036 180.191 220.133 180.191V180.191C213.229 180.191 207.633 174.594 207.633 167.691V164.691Z" fill="#FFA100"/>
<path d="M243.633 149.691C243.633 142.787 249.229 137.191 256.133 137.191V137.191C263.036 137.191 268.633 142.787 268.633 149.691V167.691C268.633 174.594 263.036 180.191 256.133 180.191V180.191C249.229 180.191 243.633 174.594 243.633 167.691V149.691Z" fill="#FFA100"/>
<path d="M289.309 98.2996C287.891 98.2996 286.815 97.425 286.756 96.2135H287.701C287.772 96.9143 288.456 97.4358 289.309 97.4413C290.33 97.4358 291.069 96.6916 291.069 95.7029C291.069 94.6816 290.303 93.9265 289.244 93.9211C288.581 93.9102 288.065 94.1167 287.777 94.6273H286.832L287.386 90.3249H291.645V91.194H288.201L287.907 93.4974H287.983C288.336 93.2257 288.863 93.041 289.418 93.041C290.917 93.041 292.02 94.1492 292.025 95.6812C292.02 97.2022 290.879 98.2996 289.309 98.2996ZM300.717 89.8903V90.5639C300.711 91.2973 300.711 92.1447 300.456 93.2909L299.619 93.1931C299.869 92.0741 299.869 91.281 299.869 90.5748H294.089V89.8903H300.717ZM293.046 94.6382V93.9537H296.686V91.998H297.523V93.9537H301.836V94.6382H293.046ZM293.676 98.3648C295.426 98.104 296.963 97.137 296.969 95.855V95.4096H297.827V95.855C297.832 97.137 299.37 98.104 301.13 98.3648L300.804 99.0275C299.332 98.7885 297.984 98.0931 297.398 97.0393C296.811 98.0931 295.464 98.7885 293.992 99.0275L293.676 98.3648Z" fill="black"/>
<path d="M281.633 118.691C281.633 111.787 287.229 106.191 294.133 106.191V106.191C301.036 106.191 306.633 111.787 306.633 118.691V167.691C306.633 174.594 301.036 180.191 294.133 180.191V180.191C287.229 180.191 281.633 174.594 281.633 167.691V118.691Z" fill="#FFA100"/>
<path d="M322.745 76.1909L326.352 69.2484V69.194H322.19V68.3249H327.362V69.2375L323.766 76.1909H322.745ZM335.967 67.8903V68.5639C335.962 69.2973 335.962 70.1447 335.706 71.2909L334.87 71.1931C335.119 70.0741 335.119 69.281 335.119 68.5748H329.339V67.8903H335.967ZM328.296 72.6382V71.9537H331.936V69.998H332.773V71.9537H337.086V72.6382H328.296ZM328.927 76.3648C330.676 76.104 332.213 75.137 332.219 73.855V73.4096H333.077V73.855C333.082 75.137 334.62 76.104 336.38 76.3648L336.054 77.0275C334.582 76.7885 333.234 76.0931 332.648 75.0393C332.061 76.0931 330.714 76.7885 329.242 77.0275L328.927 76.3648Z" fill="black"/>
<path d="M317.633 96.6909C317.633 89.7874 323.229 84.1909 330.133 84.1909V84.1909C337.036 84.1909 342.633 89.7874 342.633 96.6909V165.691C342.633 172.594 337.036 178.191 330.133 178.191V178.191C323.229 178.191 317.633 172.594 317.633 165.691V96.6909Z" fill="#FFA100"/>
</svg>
