<svg width="350" height="207" viewBox="0 0 350 207" fill="none" xmlns="http://www.w3.org/2000/svg">
<rect y="0.513672" width="350" height="206.391" rx="19" fill="#F2F2F2"/>
<circle cx="95.2025" cy="33.2689" r="12.7367" fill="white"/>
<circle cx="42.0043" cy="33.2689" r="12.7367" fill="white"/>
<circle cx="148.401" cy="33.2689" r="12.7367" fill="white"/>
<circle cx="201.6" cy="33.2689" r="12.7367" fill="white"/>
<circle cx="254.797" cy="33.2689" r="12.7367" fill="white"/>
<circle cx="307.996" cy="33.2689" r="12.7367" fill="white"/>
<path d="M38.1016 28.7842V37.2686H36.8008V30.0732H36.7539L34.7266 31.3975V30.167L36.8359 28.7842H38.1016ZM48.625 27.7764V33.9287H47.5117V33.4248H45.4609V32.7217H47.5117V27.7764H48.625ZM39.8711 31.6436C41.9043 31.6494 44.4707 31.626 46.7383 31.3857L46.7969 32.1006C45.8066 32.2412 44.7754 32.3232 43.7734 32.376V33.9521H42.6719V32.417C41.7285 32.4463 40.8203 32.4463 40 32.4404L39.8711 31.6436ZM40.6562 29.5342C40.6504 28.5732 41.6875 27.9521 43.2812 27.9521C44.8457 27.9521 45.8945 28.5732 45.9062 29.5342C45.8945 30.5127 44.8457 31.1045 43.2812 31.1045C41.6875 31.1045 40.6504 30.5127 40.6562 29.5342ZM41.4414 35.0537V34.2803H48.625V36.542H42.5781V37.3506H48.9414V38.1592H41.4883V35.8037H47.5234V35.0537H41.4414ZM41.6992 29.5342C41.6934 30.0322 42.3145 30.3545 43.2812 30.3545C44.2363 30.3545 44.8516 30.0322 44.8516 29.5342C44.8516 29.0303 44.2363 28.7021 43.2812 28.7021C42.3145 28.7021 41.6934 29.0303 41.6992 29.5342Z" fill="black"/>
<path d="M90.0352 37.3857C88.2773 37.3857 87.0293 36.4424 86.9766 35.0537H88.2891C88.3359 35.7979 89.0742 36.2725 90.0234 36.2725C91.0488 36.2725 91.793 35.7158 91.793 34.8896C91.793 34.0518 91.0957 33.4541 89.8828 33.4482H89.1562V32.3936H89.8828C90.8496 32.3994 91.5234 31.8604 91.5234 31.0459C91.5234 30.2725 90.9434 29.7451 90.0469 29.7451C89.1973 29.7451 88.4355 30.2197 88.4062 30.9873H87.1641C87.1992 29.6045 88.4766 28.667 90.0586 28.667C91.7285 28.667 92.7773 29.7217 92.7656 30.9756C92.7773 31.9424 92.1797 32.6338 91.2656 32.8623V32.9209C92.4258 33.085 93.0996 33.8643 93.0938 34.9365C93.0996 36.3486 91.793 37.3857 90.0352 37.3857ZM102.879 27.7764V33.9287H101.766V33.4248H99.7148V32.7217H101.766V27.7764H102.879ZM94.125 31.6436C96.1582 31.6494 98.7246 31.626 100.992 31.3857L101.051 32.1006C100.061 32.2412 99.0293 32.3232 98.0273 32.376V33.9521H96.9258V32.417C95.9824 32.4463 95.0742 32.4463 94.2539 32.4404L94.125 31.6436ZM94.9102 29.5342C94.9043 28.5732 95.9414 27.9521 97.5352 27.9521C99.0996 27.9521 100.148 28.5732 100.16 29.5342C100.148 30.5127 99.0996 31.1045 97.5352 31.1045C95.9414 31.1045 94.9043 30.5127 94.9102 29.5342ZM95.6953 35.0537V34.2803H102.879V36.542H96.832V37.3506H103.195V38.1592H95.7422V35.8037H101.777V35.0537H95.6953ZM95.9531 29.5342C95.9473 30.0322 96.5684 30.3545 97.5352 30.3545C98.4902 30.3545 99.1055 30.0322 99.1055 29.5342C99.1055 29.0303 98.4902 28.7021 97.5352 28.7021C96.5684 28.7021 95.9473 29.0303 95.9531 29.5342Z" fill="black"/>
<path d="M143.21 37.3857C141.604 37.3857 140.397 36.4072 140.339 35.0537H141.593C141.663 35.7744 142.354 36.3018 143.21 36.3076C144.241 36.3018 144.979 35.5576 144.979 34.5498C144.979 33.5186 144.218 32.7686 143.151 32.7568C142.472 32.7568 141.95 32.9854 141.663 33.5068H140.444L140.995 28.7842H145.8V29.8857H142.062L141.78 32.2646H141.862C142.214 31.9248 142.812 31.6963 143.456 31.6904C145.056 31.6963 146.233 32.8799 146.233 34.5146C146.233 36.1846 144.979 37.3857 143.21 37.3857ZM155.972 27.7764V33.9287H154.858V33.4248H152.808V32.7217H154.858V27.7764H155.972ZM147.218 31.6436C149.251 31.6494 151.817 31.626 154.085 31.3857L154.144 32.1006C153.153 32.2412 152.122 32.3232 151.12 32.376V33.9521H150.019V32.417C149.075 32.4463 148.167 32.4463 147.347 32.4404L147.218 31.6436ZM148.003 29.5342C147.997 28.5732 149.034 27.9521 150.628 27.9521C152.192 27.9521 153.241 28.5732 153.253 29.5342C153.241 30.5127 152.192 31.1045 150.628 31.1045C149.034 31.1045 147.997 30.5127 148.003 29.5342ZM148.788 35.0537V34.2803H155.972V36.542H149.925V37.3506H156.288V38.1592H148.835V35.8037H154.87V35.0537H148.788ZM149.046 29.5342C149.04 30.0322 149.661 30.3545 150.628 30.3545C151.583 30.3545 152.198 30.0322 152.198 29.5342C152.198 29.0303 151.583 28.7021 150.628 28.7021C149.661 28.7021 149.04 29.0303 149.046 29.5342Z" fill="black"/>
<path d="M194.1 37.2686L197.885 29.9561V29.8857H193.514V28.7842H199.221V29.9326L195.447 37.2686H194.1ZM208.889 27.7764V33.9287H207.775V33.4248H205.725V32.7217H207.775V27.7764H208.889ZM200.135 31.6436C202.168 31.6494 204.734 31.626 207.002 31.3857L207.061 32.1006C206.07 32.2412 205.039 32.3232 204.037 32.376V33.9521H202.936V32.417C201.992 32.4463 201.084 32.4463 200.264 32.4404L200.135 31.6436ZM200.92 29.5342C200.914 28.5732 201.951 27.9521 203.545 27.9521C205.109 27.9521 206.158 28.5732 206.17 29.5342C206.158 30.5127 205.109 31.1045 203.545 31.1045C201.951 31.1045 200.914 30.5127 200.92 29.5342ZM201.705 35.0537V34.2803H208.889V36.542H202.842V37.3506H209.205V38.1592H201.752V35.8037H207.787V35.0537H201.705ZM201.963 29.5342C201.957 30.0322 202.578 30.3545 203.545 30.3545C204.5 30.3545 205.115 30.0322 205.115 29.5342C205.115 29.0303 204.5 28.7021 203.545 28.7021C202.578 28.7021 201.957 29.0303 201.963 29.5342Z" fill="black"/>
<path d="M249.542 28.667C251.101 28.6787 252.735 29.6162 252.741 32.7217C252.741 35.6982 251.458 37.3857 249.425 37.3857C247.86 37.3857 246.771 36.4189 246.565 35.042H247.843C248.019 35.7568 248.569 36.2549 249.425 36.2607C250.731 36.2549 251.499 35.1182 251.511 33.1787H251.405C250.948 33.8936 250.151 34.3271 249.237 34.3271C247.714 34.3271 246.495 33.1611 246.495 31.5381C246.495 29.9209 247.696 28.6553 249.542 28.667ZM247.749 31.5146C247.755 32.499 248.487 33.2783 249.519 33.2725C250.544 33.2783 251.335 32.4404 251.335 31.5029C251.335 30.583 250.579 29.7451 249.542 29.7451C248.517 29.7451 247.743 30.542 247.749 31.5146ZM262.468 27.7764V33.9287H261.354V33.4248H259.304V32.7217H261.354V27.7764H262.468ZM253.714 31.6436C255.747 31.6494 258.313 31.626 260.581 31.3857L260.64 32.1006C259.649 32.2412 258.618 32.3232 257.616 32.376V33.9521H256.515V32.417C255.571 32.4463 254.663 32.4463 253.843 32.4404L253.714 31.6436ZM254.499 29.5342C254.493 28.5732 255.53 27.9521 257.124 27.9521C258.688 27.9521 259.737 28.5732 259.749 29.5342C259.737 30.5127 258.688 31.1045 257.124 31.1045C255.53 31.1045 254.493 30.5127 254.499 29.5342ZM255.284 35.0537V34.2803H262.468V36.542H256.421V37.3506H262.784V38.1592H255.331V35.8037H261.366V35.0537H255.284ZM255.542 29.5342C255.536 30.0322 256.157 30.3545 257.124 30.3545C258.079 30.3545 258.694 30.0322 258.694 29.5342C258.694 29.0303 258.079 28.7021 257.124 28.7021C256.157 28.7021 255.536 29.0303 255.542 29.5342Z" fill="black"/>
<path d="M301.025 28.7842V37.2686H299.725V30.0732H299.678L297.65 31.3975V30.167L299.76 28.7842H301.025ZM303.182 37.2686V36.3311L306.123 33.3662C307.055 32.3994 307.518 31.8604 307.518 31.1162C307.518 30.2783 306.838 29.7451 305.947 29.7451C305.004 29.7451 304.406 30.3428 304.4 31.2451H303.182C303.17 29.6924 304.354 28.667 305.971 28.667C307.605 28.667 308.736 29.7041 308.748 31.0811C308.736 32.0303 308.291 32.7861 306.697 34.3506L304.975 36.0967V36.167H308.889V37.2686H303.182ZM318.686 27.7764V33.9287H317.572V33.4248H315.521V32.7217H317.572V27.7764H318.686ZM309.932 31.6436C311.965 31.6494 314.531 31.626 316.799 31.3857L316.857 32.1006C315.867 32.2412 314.836 32.3232 313.834 32.376V33.9521H312.732V32.417C311.789 32.4463 310.881 32.4463 310.061 32.4404L309.932 31.6436ZM310.717 29.5342C310.711 28.5732 311.748 27.9521 313.342 27.9521C314.906 27.9521 315.955 28.5732 315.967 29.5342C315.955 30.5127 314.906 31.1045 313.342 31.1045C311.748 31.1045 310.711 30.5127 310.717 29.5342ZM311.502 35.0537V34.2803H318.686V36.542H312.639V37.3506H319.002V38.1592H311.549V35.8037H317.584V35.0537H311.502ZM311.76 29.5342C311.754 30.0322 312.375 30.3545 313.342 30.3545C314.297 30.3545 314.912 30.0322 314.912 29.5342C314.912 29.0303 314.297 28.7021 313.342 28.7021C312.375 28.7021 311.754 29.0303 311.76 29.5342Z" fill="black"/>
<rect x="30" y="143.659" width="29.6597" height="34.4824" rx="10" fill="#D9D9D9"/>
<rect x="80.373" y="130.279" width="29.6597" height="47.8625" rx="10" fill="#D9D9D9"/>
<rect x="133.571" y="110.11" width="29.6597" height="68.0315" rx="10" fill="#D9D9D9"/>
<rect x="186.77" y="93.8447" width="29.6597" height="84.2966" rx="10" fill="#D9D9D9"/>
<rect x="239.968" y="93.8447" width="29.6597" height="84.2966" rx="10" fill="#D9D9D9"/>
<rect x="291.073" y="62.6162" width="29.6597" height="115.526" rx="10" fill="#D9D9D9"/>
</svg>
