<svg width="25" height="25" viewBox="0 0 25 25" fill="none" xmlns="http://www.w3.org/2000/svg">
<path d="M3.14542 18.3752C2.94542 18.1752 2.84959 17.9377 2.85792 17.6627C2.86626 17.3877 2.96209 17.1585 3.14542 16.9752L8.42042 11.6252C8.80376 11.2419 9.27875 11.0502 9.84542 11.0502C10.4121 11.0502 10.8871 11.2419 11.2704 11.6252L13.8454 14.2252L19.0454 9.0752H17.4454C17.1621 9.0752 16.9246 8.97936 16.7329 8.7877C16.5413 8.59603 16.4454 8.35853 16.4454 8.0752C16.4454 7.79186 16.5413 7.55436 16.7329 7.3627C16.9246 7.17103 17.1621 7.0752 17.4454 7.0752H21.4454C21.7288 7.0752 21.9663 7.17103 22.1579 7.3627C22.3496 7.55436 22.4454 7.79186 22.4454 8.0752V12.0752C22.4454 12.3585 22.3496 12.596 22.1579 12.7877C21.9663 12.9794 21.7288 13.0752 21.4454 13.0752C21.1621 13.0752 20.9246 12.9794 20.7329 12.7877C20.5413 12.596 20.4454 12.3585 20.4454 12.0752V10.4752L15.2704 15.6502C14.8871 16.0335 14.4121 16.2252 13.8454 16.2252C13.2788 16.2252 12.8038 16.0335 12.4204 15.6502L9.84542 13.0752L4.54542 18.3752C4.36209 18.5585 4.12876 18.6502 3.84542 18.6502C3.56209 18.6502 3.32876 18.5585 3.14542 18.3752Z" fill="black"/>
</svg>
