<svg width="22" height="21" viewBox="0 0 22 21" fill="none" xmlns="http://www.w3.org/2000/svg">
<path d="M7.47298 6.49083L10.071 1.25883C10.1466 1.10741 10.2629 0.980056 10.4069 0.891044C10.5508 0.802032 10.7167 0.754883 10.886 0.754883C11.0552 0.754883 11.2211 0.802032 11.3651 0.891044C11.509 0.980056 11.6254 1.10741 11.701 1.25883L14.299 6.49083L20.107 7.33483C20.2745 7.35805 20.4321 7.42792 20.5618 7.53644C20.6916 7.64496 20.7882 7.78776 20.8406 7.94855C20.8931 8.10934 20.8993 8.28164 20.8585 8.44578C20.8177 8.60992 20.7316 8.75928 20.61 8.87683L16.408 12.9468L17.4 18.6968C17.527 19.4348 16.747 19.9968 16.08 19.6488L10.886 16.9328L5.69098 19.6488C5.02498 19.9978 4.24498 19.4348 4.37198 18.6958L5.36398 12.9458L1.16198 8.87583C1.04097 8.7582 0.955378 8.60898 0.914944 8.44514C0.87451 8.28129 0.880852 8.10939 0.933249 7.94897C0.985646 7.78855 1.082 7.64605 1.21135 7.53766C1.3407 7.42927 1.49787 7.35934 1.66498 7.33583L7.47298 6.49083Z" stroke="#FF9D00" stroke-width="1.5" stroke-linecap="round" stroke-linejoin="round"/>
</svg>
