<svg width="21" height="20" viewBox="0 0 21 20" fill="none" xmlns="http://www.w3.org/2000/svg">
<path d="M19.8418 10.1789H6.9357M2.38018 10.1789H0.516602M2.38018 10.1789C2.38018 9.57498 2.6201 8.99576 3.04717 8.56869C3.47423 8.14163 4.05346 7.90171 4.65742 7.90171C5.26138 7.90171 5.8406 8.14163 6.26767 8.56869C6.69473 8.99576 6.93466 9.57498 6.93466 10.1789C6.93466 10.7829 6.69473 11.3621 6.26767 11.7892C5.8406 12.2163 5.26138 12.4562 4.65742 12.4562C4.05346 12.4562 3.47423 12.2163 3.04717 11.7892C2.6201 11.3621 2.38018 10.7829 2.38018 10.1789ZM19.8418 17.0807H13.8374M13.8374 17.0807C13.8374 17.6848 13.5969 18.2646 13.1697 18.6918C12.7426 19.119 12.1632 19.3589 11.5591 19.3589C10.9552 19.3589 10.3759 19.118 9.94887 18.6909C9.52181 18.2638 9.28188 17.6846 9.28188 17.0807M13.8374 17.0807C13.8374 16.4766 13.5969 15.8977 13.1697 15.4706C12.7426 15.0434 12.1632 14.8034 11.5591 14.8034C10.9552 14.8034 10.3759 15.0433 9.94887 15.4704C9.52181 15.8975 9.28188 16.4767 9.28188 17.0807M9.28188 17.0807H0.516602M19.8418 3.27724H16.5983M12.0428 3.27724H0.516602M12.0428 3.27724C12.0428 2.67328 12.2827 2.09405 12.7098 1.66699C13.1368 1.23992 13.7161 1 14.32 1C14.6191 1 14.9152 1.0589 15.1915 1.17334C15.4678 1.28779 15.7188 1.45553 15.9303 1.66699C16.1417 1.87845 16.3095 2.12949 16.4239 2.40578C16.5384 2.68206 16.5973 2.97819 16.5973 3.27724C16.5973 3.57629 16.5384 3.87241 16.4239 4.1487C16.3095 4.42499 16.1417 4.67603 15.9303 4.88749C15.7188 5.09895 15.4678 5.26669 15.1915 5.38113C14.9152 5.49558 14.6191 5.55448 14.32 5.55448C13.7161 5.55448 13.1368 5.31456 12.7098 4.88749C12.2827 4.46043 12.0428 3.8812 12.0428 3.27724Z" stroke="#919191" stroke-miterlimit="10" stroke-linecap="round"/>
</svg>
