<svg width="23" height="21" viewBox="0 0 23 21" fill="none" xmlns="http://www.w3.org/2000/svg">
<path d="M8.02767 6.68907L10.6257 1.45707C10.7013 1.30565 10.8176 1.1783 10.9616 1.08929C11.1055 1.00027 11.2714 0.953125 11.4407 0.953125C11.6099 0.953125 11.7758 1.00027 11.9198 1.08929C12.0637 1.1783 12.18 1.30565 12.2557 1.45707L14.8537 6.68907L20.6617 7.53307C20.8292 7.5563 20.9868 7.62616 21.1165 7.73468C21.2463 7.8432 21.3429 7.986 21.3953 8.14679C21.4478 8.30758 21.4539 8.47988 21.4132 8.64402C21.3724 8.80816 21.2863 8.95752 21.1647 9.07507L16.9627 13.1451L17.9547 18.8951C18.0817 19.6331 17.3017 20.1951 16.6347 19.8471L11.4407 17.1311L6.24567 19.8471C5.57967 20.1961 4.79967 19.6331 4.92667 18.8941L5.91867 13.1441L1.71667 9.07407C1.59565 8.95644 1.51007 8.80723 1.46963 8.64338C1.4292 8.47954 1.43554 8.30763 1.48794 8.14721C1.54033 7.98679 1.63668 7.84429 1.76604 7.7359C1.89539 7.62751 2.05255 7.55758 2.21967 7.53407L8.02767 6.68907Z" fill="#FF9D00" stroke="#FF9D00" stroke-width="1.5" stroke-linecap="round" stroke-linejoin="round"/>
</svg>
