<svg width="23" height="21" viewBox="0 0 23 21" fill="none" xmlns="http://www.w3.org/2000/svg">
<path d="M7.96712 6.49083L10.5651 1.25883C10.6407 1.10741 10.7571 0.980056 10.901 0.891044C11.045 0.802032 11.2109 0.754883 11.3801 0.754883C11.5494 0.754883 11.7153 0.802032 11.8592 0.891044C12.0032 0.980056 12.1195 1.10741 12.1951 1.25883L14.7931 6.49083L20.6011 7.33483C20.7686 7.35805 20.9263 7.42792 21.056 7.53644C21.1857 7.64496 21.2823 7.78776 21.3348 7.94855C21.3872 8.10934 21.3934 8.28164 21.3526 8.44578C21.3118 8.60992 21.2257 8.75928 21.1041 8.87683L16.9021 12.9468L17.8941 18.6968C18.0211 19.4348 17.2411 19.9968 16.5741 19.6488L11.3801 16.9328L6.18512 19.6488C5.51912 19.9978 4.73912 19.4348 4.86612 18.6958L5.85812 12.9458L1.65612 8.87583C1.53511 8.7582 1.44952 8.60898 1.40908 8.44514C1.36865 8.28129 1.37499 8.10939 1.42739 7.94897C1.47979 7.78855 1.57614 7.64605 1.70549 7.53766C1.83484 7.42927 1.99201 7.35934 2.15912 7.33583L7.96712 6.49083Z" stroke="#FF9D00" stroke-width="1.5" stroke-linecap="round" stroke-linejoin="round"/>
<path fill-rule="evenodd" clip-rule="evenodd" d="M11.3809 0.754883C11.3806 0.754883 11.3804 0.754883 11.3801 0.754883C11.2109 0.754883 11.045 0.802032 10.901 0.891044C10.7571 0.980056 10.6407 1.10741 10.5651 1.25883L7.96712 6.49083L2.15912 7.33583C1.99201 7.35934 1.83484 7.42927 1.70549 7.53766C1.57614 7.64605 1.47979 7.78855 1.42739 7.94897C1.37499 8.10939 1.36865 8.28129 1.40908 8.44514C1.44952 8.60898 1.53511 8.7582 1.65612 8.87583L5.85812 12.9458L4.86612 18.6958C4.73912 19.4348 5.51912 19.9978 6.18512 19.6488L11.3801 16.9328L11.3809 16.9332V0.754883Z" fill="#FF9D00"/>
</svg>
