<svg width="21" height="12" viewBox="0 0 21 12" fill="none" xmlns="http://www.w3.org/2000/svg">
<path d="M1.12394 11.3752C0.923937 11.1752 0.828104 10.9377 0.836437 10.6627C0.844771 10.3877 0.940604 10.1585 1.12394 9.97519L6.39894 4.6252C6.78227 4.24186 7.25727 4.0502 7.82394 4.0502C8.3906 4.0502 8.8656 4.24186 9.24894 4.6252L11.8239 7.22519L17.0239 2.0752H15.4239C15.1406 2.0752 14.9031 1.97936 14.7114 1.7877C14.5198 1.59603 14.4239 1.35853 14.4239 1.0752C14.4239 0.791862 14.5198 0.554362 14.7114 0.362695C14.9031 0.171029 15.1406 0.0751953 15.4239 0.0751953H19.4239C19.7073 0.0751953 19.9448 0.171029 20.1364 0.362695C20.3281 0.554362 20.4239 0.791862 20.4239 1.0752V5.0752C20.4239 5.35853 20.3281 5.59603 20.1364 5.7877C19.9448 5.97936 19.7073 6.07519 19.4239 6.07519C19.1406 6.07519 18.9031 5.97936 18.7114 5.7877C18.5198 5.59603 18.4239 5.35853 18.4239 5.0752V3.4752L13.2489 8.6502C12.8656 9.03353 12.3906 9.22519 11.8239 9.22519C11.2573 9.22519 10.7823 9.03353 10.3989 8.6502L7.82394 6.07519L2.52394 11.3752C2.3406 11.5585 2.10727 11.6502 1.82394 11.6502C1.5406 11.6502 1.30727 11.5585 1.12394 11.3752Z" fill="black"/>
</svg>
