<svg width="14" height="14" viewBox="0 0 14 14" fill="none" xmlns="http://www.w3.org/2000/svg">
<path d="M6.72135 10.7201C7.31024 10.7201 7.86858 10.5923 8.39635 10.3367C8.92413 10.0812 9.34913 9.70894 9.67135 9.22005C9.79358 9.03116 9.81024 8.84505 9.72135 8.66172C9.63246 8.47838 9.48802 8.38672 9.28802 8.38672C9.19913 8.38672 9.11858 8.40616 9.04635 8.44505C8.97413 8.48394 8.9158 8.54227 8.87135 8.62005C8.6158 8.9645 8.29913 9.23394 7.92135 9.42838C7.54358 9.62283 7.14358 9.72005 6.72135 9.72005C6.29913 9.72005 5.89913 9.62283 5.52135 9.42838C5.14358 9.23394 4.82691 8.9645 4.57135 8.62005C4.5158 8.54227 4.45191 8.48394 4.37969 8.44505C4.30747 8.40616 4.22691 8.38672 4.13802 8.38672C3.93802 8.38672 3.79358 8.47561 3.70469 8.65339C3.6158 8.83116 3.63247 9.00894 3.75469 9.18672C4.07691 9.68672 4.50191 10.0673 5.02969 10.3284C5.55747 10.5895 6.12135 10.7201 6.72135 10.7201ZM9.05469 6.38672C9.33247 6.38672 9.56858 6.2895 9.76302 6.09505C9.95746 5.90061 10.0547 5.6645 10.0547 5.38672C10.0547 5.10894 9.95746 4.87283 9.76302 4.67839C9.56858 4.48394 9.33247 4.38672 9.05469 4.38672C8.77691 4.38672 8.5408 4.48394 8.34635 4.67839C8.15191 4.87283 8.05469 5.10894 8.05469 5.38672C8.05469 5.6645 8.15191 5.90061 8.34635 6.09505C8.5408 6.2895 8.77691 6.38672 9.05469 6.38672ZM4.38802 6.38672C4.6658 6.38672 4.90191 6.2895 5.09635 6.09505C5.2908 5.90061 5.38802 5.6645 5.38802 5.38672C5.38802 5.10894 5.2908 4.87283 5.09635 4.67839C4.90191 4.48394 4.6658 4.38672 4.38802 4.38672C4.11024 4.38672 3.87413 4.48394 3.67969 4.67839C3.48524 4.87283 3.38802 5.10894 3.38802 5.38672C3.38802 5.6645 3.48524 5.90061 3.67969 6.09505C3.87413 6.2895 4.11024 6.38672 4.38802 6.38672ZM6.72135 13.7201C5.79913 13.7201 4.93247 13.5451 4.12135 13.1951C3.31024 12.8451 2.60469 12.3701 2.00469 11.7701C1.40469 11.1701 0.929687 10.4645 0.579687 9.65339C0.229687 8.84227 0.0546875 7.97561 0.0546875 7.05338C0.0546875 6.13116 0.229687 5.2645 0.579687 4.45339C0.929687 3.64227 1.40469 2.93672 2.00469 2.33672C2.60469 1.73672 3.31024 1.26172 4.12135 0.911719C4.93247 0.561719 5.79913 0.386719 6.72135 0.386719C7.64358 0.386719 8.51024 0.561719 9.32135 0.911719C10.1325 1.26172 10.838 1.73672 11.438 2.33672C12.038 2.93672 12.513 3.64227 12.863 4.45339C13.213 5.2645 13.388 6.13116 13.388 7.05338C13.388 7.97561 13.213 8.84227 12.863 9.65339C12.513 10.4645 12.038 11.1701 11.438 11.7701C10.838 12.3701 10.1325 12.8451 9.32135 13.1951C8.51024 13.5451 7.64358 13.7201 6.72135 13.7201ZM6.72135 12.3867C8.21024 12.3867 9.47135 11.8701 10.5047 10.8367C11.538 9.80338 12.0547 8.54227 12.0547 7.05338C12.0547 5.5645 11.538 4.30339 10.5047 3.27005C9.47135 2.23672 8.21024 1.72005 6.72135 1.72005C5.23246 1.72005 3.97135 2.23672 2.93802 3.27005C1.90469 4.30339 1.38802 5.5645 1.38802 7.05338C1.38802 8.54227 1.90469 9.80338 2.93802 10.8367C3.97135 11.8701 5.23246 12.3867 6.72135 12.3867Z" fill="black"/>
</svg>
