<svg width="15" height="15" viewBox="0 0 15 15" fill="none" xmlns="http://www.w3.org/2000/svg">
<path d="M6.9356 0.453924C6.67633 0.194651 6.36206 0.0650147 5.99279 0.0650148C5.62352 0.0650148 5.30926 0.194651 5.04998 0.453923L1.27875 4.22516C1.01947 4.48443 0.889838 4.7987 0.889838 5.16797C0.889838 5.53724 1.01947 5.85151 1.27875 6.11078L8.82122 13.6532C9.08049 13.9125 9.39476 14.0422 9.76403 14.0422C10.1333 14.0422 10.4476 13.9125 10.7068 13.6533L14.4781 9.88201C14.7373 9.62274 14.867 9.30847 14.867 8.93921C14.867 8.56994 14.7373 8.25567 14.4781 7.9964L6.9356 0.453924ZM5.99279 1.39673L13.5353 8.9392L9.76403 12.7104L8.34981 11.2962L9.76403 9.88201C9.89759 9.74845 9.96438 9.59131 9.96437 9.41061C9.96438 9.2299 9.89759 9.07277 9.76403 8.93921C9.63046 8.80564 9.47333 8.73886 9.29262 8.73886C9.11192 8.73886 8.95478 8.80564 8.82122 8.9392L7.40701 10.3534L6.4642 9.41061L7.87841 7.9964C8.01197 7.86283 8.07876 7.7057 8.07876 7.52499C8.07876 7.34429 8.01197 7.18715 7.87841 7.05359C7.74485 6.92002 7.58771 6.85324 7.40701 6.85324C7.2263 6.85324 7.06917 6.92002 6.9356 7.05359L5.52139 8.4678L4.57858 7.52499L5.99279 6.11078C6.12636 5.97721 6.19314 5.82008 6.19314 5.63937C6.19314 5.45867 6.12636 5.30153 5.99279 5.16797C5.85923 5.0344 5.70209 4.96762 5.52139 4.96762C5.34068 4.96762 5.18355 5.0344 5.04998 5.16797L3.63577 6.58218L2.22156 5.16797L5.99279 1.39673Z" fill="black"/>
</svg>
