<svg width="18" height="14" viewBox="0 0 18 14" fill="none" xmlns="http://www.w3.org/2000/svg">
<path d="M0.244141 10.8561C0.244141 10.4113 0.358608 10.0025 0.587544 9.62965C0.81648 9.25681 1.12064 8.97228 1.50002 8.77605C2.3111 8.3705 3.13527 8.06635 3.97252 7.86358C4.80977 7.6608 5.6601 7.55942 6.52352 7.55942C7.38693 7.55942 8.23727 7.6608 9.07452 7.86358C9.91177 8.06635 10.7359 8.3705 11.547 8.77605C11.9264 8.97228 12.2306 9.25681 12.4595 9.62965C12.6884 10.0025 12.8029 10.4113 12.8029 10.8561V11.484C12.8029 11.9157 12.6492 12.2853 12.3418 12.5927C12.0343 12.9002 11.6648 13.0539 11.2331 13.0539H1.81399C1.38228 13.0539 1.01271 12.9002 0.705282 12.5927C0.397855 12.2853 0.244141 11.9157 0.244141 11.484V10.8561ZM15.9426 13.0539H13.941C14.0849 12.8184 14.1929 12.5666 14.2648 12.2984C14.3368 12.0302 14.3727 11.7588 14.3727 11.484V10.6991C14.3727 10.1235 14.2125 9.57078 13.892 9.04096C13.5715 8.51114 13.1169 8.05654 12.5282 7.67716C13.1954 7.75565 13.8233 7.88974 14.412 8.07943C15.0007 8.26912 15.5501 8.50132 16.0603 8.77605C16.5313 9.03769 16.891 9.32876 17.1396 9.64927C17.3882 9.96978 17.5124 10.3197 17.5124 10.6991V11.484C17.5124 11.9157 17.3587 12.2853 17.0513 12.5927C16.7439 12.9002 16.3743 13.0539 15.9426 13.0539ZM6.52352 6.7745C5.6601 6.7745 4.92097 6.46707 4.30611 5.85221C3.69126 5.23736 3.38383 4.49822 3.38383 3.63481C3.38383 2.77139 3.69126 2.03226 4.30611 1.4174C4.92097 0.802545 5.6601 0.495117 6.52352 0.495117C7.38693 0.495117 8.12607 0.802545 8.74092 1.4174C9.35578 2.03226 9.66321 2.77139 9.66321 3.63481C9.66321 4.49822 9.35578 5.23736 8.74092 5.85221C8.12607 6.46707 7.38693 6.7745 6.52352 6.7745ZM14.3727 3.63481C14.3727 4.49822 14.0653 5.23736 13.4505 5.85221C12.8356 6.46707 12.0965 6.7745 11.2331 6.7745C11.0891 6.7745 10.906 6.75814 10.6836 6.72544C10.4612 6.69273 10.2781 6.65676 10.1342 6.61751C10.4874 6.19889 10.7588 5.73447 10.9485 5.22427C11.1382 4.71407 11.2331 4.18425 11.2331 3.63481C11.2331 3.08536 11.1382 2.55554 10.9485 2.04534C10.7588 1.53514 10.4874 1.07073 10.1342 0.652102C10.3173 0.586691 10.5005 0.544175 10.6836 0.524552C10.8668 0.504929 11.0499 0.495117 11.2331 0.495117C12.0965 0.495117 12.8356 0.802545 13.4505 1.4174C14.0653 2.03226 14.3727 2.77139 14.3727 3.63481ZM1.81399 11.484H11.2331V10.8561C11.2331 10.7122 11.1971 10.5814 11.1251 10.4636C11.0532 10.3459 10.9583 10.2543 10.8406 10.1889C10.1342 9.83569 9.42119 9.57078 8.70168 9.39417C7.98217 9.21757 7.25611 9.12926 6.52352 9.12926C5.79092 9.12926 5.06487 9.21757 4.34536 9.39417C3.62585 9.57078 2.91288 9.83569 2.20645 10.1889C2.08871 10.2543 1.99386 10.3459 1.92191 10.4636C1.84996 10.5814 1.81399 10.7122 1.81399 10.8561V11.484ZM6.52352 5.20465C6.95523 5.20465 7.32479 5.05094 7.63222 4.74351C7.93965 4.43608 8.09336 4.06651 8.09336 3.63481C8.09336 3.2031 7.93965 2.83353 7.63222 2.5261C7.32479 2.21868 6.95523 2.06496 6.52352 2.06496C6.09181 2.06496 5.72224 2.21868 5.41482 2.5261C5.10739 2.83353 4.95367 3.2031 4.95367 3.63481C4.95367 4.06651 5.10739 4.43608 5.41482 4.74351C5.72224 5.05094 6.09181 5.20465 6.52352 5.20465Z" fill="black"/>
</svg>
