<svg width="14" height="14" viewBox="0 0 14 14" fill="none" xmlns="http://www.w3.org/2000/svg">
<path d="M6.72135 10.5537C6.91024 10.5537 7.06858 10.4898 7.19635 10.362C7.32413 10.2343 7.38802 10.0759 7.38802 9.88704C7.38802 9.69815 7.32413 9.53982 7.19635 9.41204C7.06858 9.28427 6.91024 9.22038 6.72135 9.22038C6.53246 9.22038 6.37413 9.28427 6.24635 9.41204C6.11858 9.53982 6.05469 9.69815 6.05469 9.88704C6.05469 10.0759 6.11858 10.2343 6.24635 10.362C6.37413 10.4898 6.53246 10.5537 6.72135 10.5537ZM6.72135 7.88704C6.91024 7.88704 7.06858 7.82315 7.19635 7.69538C7.32413 7.5676 7.38802 7.40927 7.38802 7.22038V4.55371C7.38802 4.36482 7.32413 4.20649 7.19635 4.07871C7.06858 3.95093 6.91024 3.88704 6.72135 3.88704C6.53246 3.88704 6.37413 3.95093 6.24635 4.07871C6.11858 4.20649 6.05469 4.36482 6.05469 4.55371V7.22038C6.05469 7.40927 6.11858 7.5676 6.24635 7.69538C6.37413 7.82315 6.53246 7.88704 6.72135 7.88704ZM6.72135 13.887C5.79913 13.887 4.93247 13.712 4.12135 13.362C3.31024 13.012 2.60469 12.537 2.00469 11.937C1.40469 11.337 0.929687 10.6315 0.579687 9.82038C0.229687 9.00927 0.0546875 8.1426 0.0546875 7.22038C0.0546875 6.29815 0.229687 5.43149 0.579687 4.62038C0.929687 3.80927 1.40469 3.10371 2.00469 2.50371C2.60469 1.90371 3.31024 1.42871 4.12135 1.07871C4.93247 0.728711 5.79913 0.553711 6.72135 0.553711C7.64358 0.553711 8.51024 0.728711 9.32135 1.07871C10.1325 1.42871 10.838 1.90371 11.438 2.50371C12.038 3.10371 12.513 3.80927 12.863 4.62038C13.213 5.43149 13.388 6.29815 13.388 7.22038C13.388 8.1426 13.213 9.00927 12.863 9.82038C12.513 10.6315 12.038 11.337 11.438 11.937C10.838 12.537 10.1325 13.012 9.32135 13.362C8.51024 13.712 7.64358 13.887 6.72135 13.887ZM6.72135 12.5537C8.21024 12.5537 9.47135 12.037 10.5047 11.0037C11.538 9.97038 12.0547 8.70927 12.0547 7.22038C12.0547 5.73149 11.538 4.47038 10.5047 3.43704C9.47135 2.40371 8.21024 1.88704 6.72135 1.88704C5.23246 1.88704 3.97135 2.40371 2.93802 3.43704C1.90469 4.47038 1.38802 5.73149 1.38802 7.22038C1.38802 8.70927 1.90469 9.97038 2.93802 11.0037C3.97135 12.037 5.23246 12.5537 6.72135 12.5537Z" fill="black"/>
</svg>
